<svg width="30" height="24" viewBox="0 0 30 24" fill="none" xmlns="http://www.w3.org/2000/svg">
<path d="M17.6521 9.88024C19.1159 11.0512 19.1159 12.9522 17.6521 14.1252C16.1884 15.2962 13.8121 15.2962 12.3459 14.1252C10.8821 12.9542 10.8821 11.0532 12.3459 9.88024C13.8121 8.70724 16.1871 8.70724 17.6521 9.88024" stroke="black" stroke-width="1.5" stroke-linecap="round" stroke-linejoin="round"/>
<path fill-rule="evenodd" clip-rule="evenodd" d="M3.75 12C3.75 11.341 3.94 10.689 4.3075 10.088V10.088C6.20125 6.991 10.3863 5 15 5C19.6137 5 23.7988 6.991 25.6925 10.088V10.088C26.06 10.689 26.25 11.341 26.25 12C26.25 12.659 26.06 13.311 25.6925 13.912V13.912C23.7988 17.009 19.6137 19 15 19C10.3863 19 6.20125 17.009 4.3075 13.912V13.912C3.94 13.311 3.75 12.659 3.75 12Z" stroke="black" stroke-width="1.5" stroke-linecap="round" stroke-linejoin="round"/>
</svg>
