<svg width="25" height="24" viewBox="0 0 25 24" fill="none" xmlns="http://www.w3.org/2000/svg">
<path d="M21.5 11V19C21.5 20.105 20.605 21 19.5 21H5.5C4.395 21 3.5 20.105 3.5 19V5C3.5 3.895 4.395 3 5.5 3H12.5" stroke="white" stroke-width="1.5" stroke-linecap="round" stroke-linejoin="round"/>
<path fill-rule="evenodd" clip-rule="evenodd" d="M9.5 15.0002L12.65 14.6112C12.871 14.5842 13.077 14.4832 13.235 14.3262L20.866 6.69524C21.711 5.85024 21.711 4.48024 20.866 3.63424V3.63424C20.021 2.78924 18.651 2.78924 17.805 3.63424L10.245 11.1942C10.092 11.3472 9.993 11.5452 9.962 11.7602L9.5 15.0002Z" stroke="white" stroke-width="1.5" stroke-linecap="round" stroke-linejoin="round"/>
</svg>
