<svg width="104" height="105" viewBox="0 0 104 105" fill="none" xmlns="http://www.w3.org/2000/svg">
<path d="M43.3333 82.8333H20.3667C16.2977 82.8333 13 79.384 13 75.1287V21.2047C13 16.9493 16.2977 13.5 20.3667 13.5H79.3C83.369 13.5 86.6667 16.9493 86.6667 21.2047V39.5" stroke="#16A34A" stroke-width="6.5" stroke-linecap="round" stroke-linejoin="round"/>
<path d="M39 30.8337H65" stroke="#16A34A" stroke-width="6.5" stroke-linecap="round" stroke-linejoin="round"/>
<path d="M30.3335 48.1667H65.0002" stroke="#16A34A" stroke-width="6.5" stroke-linecap="round" stroke-linejoin="round"/>
<path d="M30.3335 65.4997H43.3335" stroke="#16A34A" stroke-width="6.5" stroke-linecap="round" stroke-linejoin="round"/>
<path fill-rule="evenodd" clip-rule="evenodd" d="M74.9362 90.2301L94.0635 71.1028C95.7578 69.4084 95.7578 66.6654 94.0635 64.9754L87.1908 58.1028C85.4965 56.4084 82.7535 56.4084 81.0635 58.1028L61.9362 77.2301C61.1215 78.0448 60.6665 79.1454 60.6665 80.2938V91.4998H71.8725C73.0208 91.4998 74.1215 91.0448 74.9362 90.2301V90.2301Z" stroke="#16A34A" stroke-width="6.5" stroke-linecap="round" stroke-linejoin="round"/>
</svg>
