<svg width="352" height="247" viewBox="0 0 352 247" fill="none" xmlns="http://www.w3.org/2000/svg">
<g clip-path="url(#clip0_99_4161)">
<path opacity="0.1" d="M352 158.491C352.006 165.177 351.297 171.839 349.887 178.329C349.413 180.513 348.862 182.655 348.235 184.753C347.466 187.339 346.576 189.877 345.569 192.355C345.061 193.607 344.524 194.835 343.958 196.041C343.967 202.897 342.729 209.68 340.321 215.963C335.967 227.235 328.205 236.349 318.451 241.646C312.343 244.966 305.669 246.71 298.902 246.755H66.8216C56.4951 246.781 46.3466 243.69 37.4081 237.797C36.0871 236.925 34.8001 235.996 33.5468 235.011C30.8258 232.868 28.2693 230.466 25.9051 227.83C22.7043 224.262 19.8845 220.275 17.5042 215.953C11.9119 205.833 8.94947 194.114 8.95986 182.154C3.29651 170.829 -0.00585938 157.262 -0.00585938 142.684C-0.00585938 124.29 5.24207 107.512 13.8641 94.8102C15.6616 92.1566 17.6306 89.6597 19.7546 87.3405C21.8503 85.0455 24.1028 82.9441 26.4908 81.0562C28.4007 79.5429 30.3976 78.1773 32.468 76.9688C33.3317 76.4647 34.1984 75.9947 35.08 75.5553C35.854 75.1636 36.637 74.7991 37.429 74.4551C38.3794 74.0418 39.3417 73.6637 40.316 73.3208C41.2902 72.9779 42.2516 72.6759 43.1999 72.4148C44.5946 72.0265 46.0132 71.7109 47.4557 71.4679C48.6511 71.2669 49.8465 71.1273 51.042 71.0183C51.9923 70.9411 52.9506 70.8957 53.917 70.882H54.44C55.5039 70.882 56.5618 70.9297 57.6108 71.0115C57.7214 70.7594 57.841 70.504 57.9515 70.2519C58.3699 69.3459 58.8033 68.4398 59.2396 67.5508V67.527C59.3143 67.3737 59.389 67.2204 59.4667 67.0706C59.8194 66.345 60.187 65.6264 60.5635 64.9145C60.7369 64.5739 60.9072 64.2537 61.0836 63.9301C61.1224 63.8517 61.1613 63.7768 61.2061 63.6985C61.3854 63.3579 61.5677 63.0172 61.753 62.6766C62.6755 60.9985 63.6348 59.3466 64.631 57.7207C64.7177 57.581 64.7984 57.4448 64.885 57.3085C65.0404 57.0565 65.1839 56.8078 65.3572 56.5592C65.7696 55.9018 66.194 55.241 66.6214 54.5904C66.9202 54.1306 67.2191 53.6708 67.5419 53.228C68.3189 52.0835 69.1168 50.9459 69.9327 49.8218C70.7486 48.6978 71.6093 47.567 72.479 46.46C72.5985 46.3067 72.7181 46.1568 72.8436 46.0036L74.1197 44.4197C74.1825 44.3448 74.2363 44.2766 74.296 44.2085C74.4484 44.0212 74.5949 43.8338 74.7593 43.6499C75.4436 42.8256 76.146 42.0115 76.8513 41.2077C80.4538 37.1279 84.2918 33.3273 88.3393 29.8312C88.4977 29.6881 88.6591 29.5519 88.8175 29.4156C89.5766 28.7616 90.3477 28.1179 91.1187 27.4843C95.3605 24.0179 99.7938 20.8664 104.391 18.0493C104.708 17.845 105.031 17.6508 105.356 17.4567C109.479 14.9726 113.718 12.7485 118.055 10.7942C120.418 9.72925 122.822 8.73465 125.269 7.81045C126.889 7.20756 128.515 6.63193 130.161 6.10738C132.708 5.27401 135.286 4.52239 137.896 3.85251C145.585 1.88609 153.408 0.671366 161.278 0.221561C163.669 0.0785028 166.087 0.00697474 168.532 0.00697474C180.328 -0.0108237 192.078 1.68316 203.498 5.04807C203.616 5.25144 203.778 5.41724 203.967 5.52986C204.157 5.64248 204.369 5.69822 204.583 5.69183H205.587C206.023 5.82467 206.457 5.96432 206.893 6.10738C209.33 6.90896 211.732 7.78207 214.098 8.7267L214.696 8.97195C220.538 11.3395 226.222 14.1854 231.704 17.4873C236.645 20.4579 241.403 23.8082 245.945 27.515C246.644 28.0872 247.333 28.6651 248.013 29.2487C248.838 28.6424 249.676 28.0645 250.529 27.515C253.822 25.3785 257.32 23.6802 260.953 22.4535C268.55 19.8914 276.587 19.5332 284.336 21.4112C294.273 23.8125 303.269 29.7733 310.534 38.2512C313.493 41.7087 316.13 45.5077 318.4 49.5868C318.564 49.8797 318.728 50.1761 318.887 50.4758C320.834 54.0984 322.508 57.9031 323.89 61.8489C323.94 61.992 323.991 62.1316 324.036 62.2747C325.312 65.9673 326.341 69.7647 327.114 73.6342C327.15 73.8284 327.192 74.0259 327.228 74.2235C327.951 77.9683 328.443 81.7664 328.698 85.5898C328.698 85.726 328.698 85.8657 328.722 86.0053C328.848 87.9832 328.911 89.9826 328.913 92.0035C328.913 93.8088 328.86 95.6004 328.761 97.375C328.761 97.5692 328.737 97.7735 328.722 97.9711C328.695 98.4888 328.656 98.9929 328.618 99.5141C330.9 101.611 333.036 103.907 335.007 106.381C335.878 107.464 336.721 108.589 337.536 109.756C340.018 113.301 342.2 117.107 344.051 121.123C349.095 132.016 352 144.802 352 158.491Z" fill="#1BA64E"/>
<path opacity="0.1" d="M318.229 225.535C318.229 233.277 311.188 240.522 298.902 246.762H66.8215C56.0835 246.762 46.027 242.334 37.408 234.612C35.2412 231.683 34.0996 228.648 34.0996 225.532C34.0996 217.302 42.0612 209.621 55.8265 203.129L56.215 202.952C60.1002 201.137 64.4426 199.423 69.1884 197.812C69.308 197.771 69.4305 197.734 69.55 197.686C73.3157 196.426 77.3213 195.232 81.5671 194.103C81.7016 194.069 81.8331 194.031 81.9676 194.004C83.6053 193.561 85.2759 193.149 86.9824 192.737L87.6399 192.58C100.057 189.644 114.172 187.315 129.48 185.734H129.498C131.642 185.507 133.808 185.304 135.998 185.124C138.434 184.903 140.899 184.716 143.392 184.542C145.295 184.402 147.223 184.283 149.157 184.174C149.164 184.171 149.171 184.169 149.179 184.169C149.187 184.169 149.194 184.171 149.201 184.174C157.925 183.673 166.939 183.411 176.155 183.411C198.946 183.411 220.488 185.005 239.576 187.839C239.594 187.836 239.612 187.836 239.63 187.839C242.564 188.275 245.445 188.735 248.255 189.225C249.059 189.368 249.86 189.512 250.646 189.658C253.815 190.242 256.904 190.858 259.91 191.508C295.265 199.168 318.229 211.563 318.229 225.535Z" fill="#1BA64E"/>
<path d="M260.454 82.8642C260.454 82.8642 257.292 81.403 247.232 86.6587C237.173 91.9143 235.918 91.2501 233.315 90.4599C230.712 89.6697 229.259 89.4653 226.468 85.0748C226.468 85.0748 224.498 72.9115 222.583 71.0245C220.667 69.1375 212.58 72.1008 212.58 72.1008C212.58 72.1008 202.87 74.6384 201.02 59.8387C201.02 59.8387 202.332 48.6938 200.545 45.274C200.545 45.274 204.155 47.0452 210.108 44.184C216.062 41.3229 220.828 47.2666 220.828 47.2666C220.828 47.2666 222.323 51.6946 222.173 54.3377C222.024 56.9809 222.968 57.9721 225.807 56.6948C225.807 56.6948 227.203 54.4331 225.228 50.6932C223.252 46.9532 221.841 44.1704 222.391 41.2684C222.941 38.3663 224.528 34.3369 229.624 32.3238C234.719 30.3108 241.638 29.9395 244.958 28.3489C248.278 26.7582 249.097 25.7432 249.097 25.7432C249.097 25.7432 247.053 28.0764 251.868 37.9712C256.682 47.8661 253.613 52.1578 253.613 52.1578C253.613 52.1578 251.052 59.1166 239.743 58.5512C239.743 58.5512 228.847 59.0042 234.788 64.2701C234.788 64.2701 238.592 63.3879 244.28 61.3272C249.967 59.2664 254.073 67.7716 255.092 73.6881C256.111 79.6045 260.454 82.8642 260.454 82.8642Z" fill="#1BA64E"/>
<path d="M245.807 33.2372L245.867 33.2168C246.303 35.1038 241.435 42.6927 237.272 48.725L237.224 48.6807C243.094 40.1858 246.145 34.6985 245.807 33.2372Z" fill="#444053"/>
<path d="M237.308 48.5645L237.334 48.6394C234.008 53.4557 229.827 59.1984 226.48 63.4663C226.16 63.8717 225.843 64.2974 225.539 64.7334L225.443 64.6449C225.742 64.2089 226.067 63.7797 226.387 63.3744C229.731 59.1235 233.978 53.3841 237.308 48.5645Z" fill="#444053"/>
<path d="M225.524 64.5361L225.59 64.6656C219.499 73.3342 219.095 86.8055 219.081 86.9111L217.795 85.208C217.81 85.099 219.391 73.2661 225.524 64.5361Z" fill="#444053"/>
<path d="M253.404 78.164C253.404 78.164 246.231 73.9064 240.625 75.4391C235.018 76.9719 222.41 70.0233 222.41 70.0233C222.41 70.0233 217.06 67.5471 215.984 64.7234C215.984 64.7234 212.311 60.2954 212.099 58.0099C211.887 55.7244 208.315 49.9646 205.984 49.7432" stroke="#444053" stroke-miterlimit="10"/>
<path d="M252.349 82.2613C252.349 82.2613 248.733 79.4819 249.154 76.2461" stroke="#444053" stroke-miterlimit="10"/>
<path d="M246.802 85.8482C246.802 85.8482 241.629 83.7091 241.124 75.3164" stroke="#444053" stroke-miterlimit="10"/>
<path d="M238.461 88.0218C238.461 88.0218 233.518 83.3486 235.159 75.1807" stroke="#444053" stroke-miterlimit="10"/>
<path d="M228.423 85.7396C228.423 85.7396 225.135 77.8714 228.061 72.752" stroke="#444053" stroke-miterlimit="10"/>
<path d="M253.473 72.9766C253.473 72.9766 249.734 74.339 250.535 76.5735" stroke="#444053" stroke-miterlimit="10"/>
<path d="M248.96 65.2549C248.96 65.2549 243.954 67.0635 243.837 75.1327" stroke="#444053" stroke-miterlimit="10"/>
<path d="M241.979 63.375C241.979 63.375 237.421 69.7854 237.756 75.6099" stroke="#444053" stroke-miterlimit="10"/>
<path d="M233.999 65.8887C233.999 65.8887 229.474 70.8208 230.051 73.5627" stroke="#444053" stroke-miterlimit="10"/>
<path d="M231.271 64.1479C231.271 64.1479 227.027 65.013 226.432 63.4258" stroke="#444053" stroke-miterlimit="10"/>
<path d="M225.757 58.3096C225.757 58.3096 227.9 61.5454 228.447 60.8199" stroke="#444053" stroke-miterlimit="10"/>
<path d="M247.011 56.2628C247.011 56.2628 236.312 57.1484 233.892 53.4697" stroke="#444053" stroke-miterlimit="10"/>
<path d="M223.519 42.001C223.519 42.001 228.536 54.2801 232.185 55.8435" stroke="#444053" stroke-miterlimit="10"/>
<path d="M228.772 36.1523C228.772 36.1523 231.853 47.4471 235.673 50.9725" stroke="#444053" stroke-miterlimit="10"/>
<path d="M251.512 46.9403C251.512 46.9403 243.377 50.9186 238.494 46.8926" stroke="#444053" stroke-width="0.75" stroke-miterlimit="10"/>
<path d="M236.017 33.7451C236.017 33.7451 237.875 42.0459 240.38 44.0521" stroke="#444053" stroke-width="0.75" stroke-miterlimit="10"/>
<path d="M250.284 37.6377C250.284 37.6377 245.711 39.6133 244.008 38.1009" stroke="#444053" stroke-width="0.75" stroke-miterlimit="10"/>
<path d="M221.839 61.0215C221.839 61.0215 221.839 68.2595 220.111 68.7739" stroke="#444053" stroke-miterlimit="10"/>
<path d="M207.706 70.398C207.706 70.398 214.579 71.0792 217.738 67.0293" stroke="#444053" stroke-miterlimit="10"/>
<path d="M220.069 52.4717C220.069 52.4717 218.408 59.8119 213.823 61.7909" stroke="#444053" stroke-miterlimit="10"/>
<path d="M203.587 62.6664C203.587 62.6664 208.447 64.5909 212.628 59.6895" stroke="#444053" stroke-miterlimit="10"/>
<path d="M214.663 46.1602C214.663 46.1602 214.206 52.3934 211.232 55.3125" stroke="#444053" stroke-miterlimit="10"/>
<path d="M203.773 53.1663C203.773 53.1663 207.805 53.1969 208.749 51.6982" stroke="#444053" stroke-miterlimit="10"/>
<path d="M232.932 76.8359H118.111V142.895H232.932V76.8359Z" fill="#33323D"/>
<path d="M269.064 162.964H82.3442V206.447H269.064V162.964Z" fill="#33323D"/>
<path d="M126.916 173.833H222.66L241.737 247H106.74L126.916 173.833Z" fill="white"/>
<path d="M77.0244 137.039V159.618V164.373V206.443H112.792V166.308H238.617V206.443H274.384V164.373V159.618V137.039H77.0244Z" fill="#504F60"/>
<path opacity="0.1" d="M274.384 137.039H77.0244V159.615H274.384V137.039Z" fill="#33323D"/>
<path opacity="0.8" d="M263.747 151.676C265.368 151.676 266.682 150.178 266.682 148.331C266.682 146.484 265.368 144.986 263.747 144.986C262.126 144.986 260.812 146.484 260.812 148.331C260.812 150.178 262.126 151.676 263.747 151.676Z" fill="#8CCF4D"/>
<path opacity="0.8" d="M250.541 151.676C252.162 151.676 253.476 150.178 253.476 148.331C253.476 146.484 252.162 144.986 250.541 144.986C248.92 144.986 247.606 146.484 247.606 148.331C247.606 150.178 248.92 151.676 250.541 151.676Z" fill="#FA5959"/>
<path d="M228.715 60.9463H122.331V132.857H228.715V60.9463Z" fill="white"/>
<path d="M244.898 165.903C245.123 168.686 243.279 171.387 243.817 174.112C243.93 174.694 244.151 175.246 244.232 175.815C244.453 177.433 243.607 178.965 242.797 180.321L235.855 191.963C235.576 192.474 235.243 192.943 234.863 193.36C233.533 194.722 231.542 194.566 229.8 194.967C228.575 195.251 227.418 195.831 226.408 196.671C226.364 196.71 226.335 196.767 226.327 196.831C226.318 196.894 226.331 196.958 226.363 197.011C226.65 197.46 227.032 197.82 227.472 198.058C227.913 198.296 228.399 198.405 228.886 198.374C229.068 198.646 228.886 199.055 228.635 199.246C228.261 199.538 227.738 199.617 227.675 200.339C227.649 200.59 227.693 200.844 227.801 201.064C228.082 201.552 228.518 201.896 229.017 202.025C231.408 202.863 234.017 201.391 235.816 199.389C237.615 197.386 238.906 194.858 240.673 192.818C241.65 191.691 242.765 190.723 243.769 189.63C245.777 187.45 247.355 184.797 248.849 182.136C249.343 181.365 249.715 180.502 249.949 179.585C250.134 178.679 250.051 177.722 250.266 176.823C250.547 175.648 251.303 174.711 251.93 173.723C253.165 171.789 253.987 169.425 253.822 167.04C253.658 164.656 252.367 162.309 250.394 161.499C249.783 161.221 249.109 161.175 248.473 161.366C247.663 161.649 247.068 162.412 246.515 163.14L245.197 164.874C244.869 165.258 244.608 165.71 244.429 166.206C244.344 166.456 244.325 166.729 244.373 166.991C244.421 167.253 244.535 167.494 244.701 167.684" fill="#FBBEBE"/>
<path opacity="0.05" d="M244.898 165.903C245.123 168.686 243.279 171.387 243.817 174.112C243.93 174.694 244.151 175.246 244.232 175.815C244.453 177.433 243.607 178.965 242.797 180.321L235.855 191.963C235.576 192.474 235.243 192.943 234.863 193.36C233.533 194.722 231.542 194.566 229.8 194.967C228.575 195.251 227.418 195.831 226.408 196.671C226.364 196.71 226.335 196.767 226.327 196.831C226.318 196.894 226.331 196.958 226.363 197.011C226.65 197.46 227.032 197.82 227.472 198.058C227.913 198.296 228.399 198.405 228.886 198.374C229.068 198.646 228.886 199.055 228.635 199.246C228.261 199.538 227.738 199.617 227.675 200.339C227.649 200.59 227.693 200.844 227.801 201.064C228.082 201.552 228.518 201.896 229.017 202.025C231.408 202.863 234.017 201.391 235.816 199.389C237.615 197.386 238.906 194.858 240.673 192.818C241.65 191.691 242.765 190.723 243.769 189.63C245.777 187.45 247.355 184.797 248.849 182.136C249.343 181.365 249.715 180.502 249.949 179.585C250.134 178.679 250.051 177.722 250.266 176.823C250.547 175.648 251.303 174.711 251.93 173.723C253.165 171.789 253.987 169.425 253.822 167.04C253.658 164.656 252.367 162.309 250.394 161.499C249.783 161.221 249.109 161.175 248.473 161.366C247.663 161.649 247.068 162.412 246.515 163.14L245.197 164.874C244.869 165.258 244.608 165.71 244.429 166.206C244.344 166.456 244.325 166.729 244.373 166.991C244.421 167.253 244.535 167.494 244.701 167.684" fill="black"/>
<path d="M250.155 237.531C248.637 238.583 246.748 238.651 244.985 238.402C244.686 238.365 244.366 238.341 244.184 238.59C243.921 238.954 244.232 239.486 244.552 239.779C245.594 240.667 246.816 241.24 248.105 241.444C249.256 241.627 250.416 241.715 251.578 241.706C254.746 241.768 257.932 241.829 261.07 241.308C261.251 241.292 261.427 241.233 261.587 241.134C261.789 240.973 261.929 240.729 261.978 240.453C262.196 239.527 261.781 238.525 261.156 237.881C260.532 237.238 259.728 236.877 258.942 236.519L256.186 235.296C255.538 235.007 254.501 234.247 253.795 234.305C252.507 234.424 251.249 236.802 250.155 237.531Z" fill="#3F3D56"/>
<path opacity="0.05" d="M250.155 237.531C248.637 238.583 246.748 238.651 244.985 238.402C244.686 238.365 244.366 238.341 244.184 238.59C243.921 238.954 244.232 239.486 244.552 239.779C245.594 240.667 246.816 241.24 248.105 241.444C249.256 241.627 250.416 241.715 251.578 241.706C254.746 241.768 257.932 241.829 261.07 241.308C261.251 241.292 261.427 241.233 261.587 241.134C261.789 240.973 261.929 240.729 261.978 240.453C262.196 239.527 261.781 238.525 261.156 237.881C260.532 237.238 259.728 236.877 258.942 236.519L256.186 235.296C255.538 235.007 254.501 234.247 253.795 234.305C252.507 234.424 251.249 236.802 250.155 237.531Z" fill="black"/>
<path d="M252.077 195.823C250.932 197.564 249.743 199.57 250.027 201.726C250.179 202.887 250.75 203.913 251.169 204.986C251.692 206.462 252.08 207.996 252.325 209.563C252.755 211.842 253.186 214.128 253.449 216.44C253.748 219.053 252.343 226.611 252.212 229.244C252.179 229.878 252.116 230.566 251.727 231.022C251.575 231.203 251.372 231.363 251.306 231.584C251.264 231.81 251.296 232.045 251.396 232.245C252.044 233.911 253.368 235.147 254.838 235.855C256.309 236.564 259.886 237.78 261.482 237.845C261.694 237.874 261.909 237.841 262.107 237.749C262.322 237.602 262.492 237.382 262.591 237.119C263.744 234.609 262.636 225.671 262.654 222.834C262.654 220.45 263.159 218.12 263.069 215.756C262.994 213.859 262.549 212.009 262.388 210.115C262.122 207.012 262.621 203.899 263.123 200.834C263.505 198.487 263.888 196.136 264.378 193.813C264.677 192.4 265.024 190.969 265.708 189.726C266.249 188.749 266.984 187.934 267.603 187.001C269.317 184.44 270.078 181.212 269.722 178.016C269.686 177.702 265.741 179.157 265.397 179.327C263.981 180.013 262.679 180.969 261.545 182.154C260.648 183.142 259.916 184.467 259.115 185.577C257.985 187.144 256.871 188.724 255.771 190.315C254.522 192.143 253.29 193.979 252.077 195.823Z" fill="#464353"/>
<path opacity="0.05" d="M252.077 195.71C250.932 197.451 249.743 199.457 250.027 201.617C250.179 202.775 250.75 203.8 251.169 204.873C251.692 206.349 252.079 207.883 252.325 209.451C252.755 211.729 253.186 214.015 253.449 216.328C253.748 218.94 252.343 226.502 252.212 229.135C252.179 229.765 252.116 230.456 251.727 230.909C251.575 231.09 251.372 231.25 251.306 231.471C251.261 231.703 251.293 231.946 251.396 232.153C252.044 233.815 253.368 235.055 254.838 235.76C256.309 236.465 259.886 237.122 261.482 237.18C261.694 237.209 261.909 237.176 262.107 237.085C262.322 236.938 262.492 236.717 262.591 236.455C263.744 233.944 262.636 225.575 262.654 222.741C262.654 220.357 263.159 218.024 263.069 215.66C262.994 213.763 262.549 211.913 262.388 210.02C262.122 206.917 262.621 203.803 263.123 200.741C263.505 198.391 263.888 196.041 264.378 193.718C264.677 192.304 265.024 190.874 265.708 189.63C266.249 188.656 266.984 187.839 267.603 186.926C269.315 184.363 270.076 181.136 269.722 177.94C269.686 177.624 265.741 179.078 265.397 179.252C263.98 179.939 262.677 180.897 261.545 182.086C260.648 183.077 259.916 184.399 259.115 185.492C257.985 187.059 256.871 188.639 255.771 190.233C254.522 192.05 253.29 193.876 252.077 195.71Z" fill="black"/>
<path d="M239.319 157.5C242.872 157.5 245.753 154.217 245.753 150.166C245.753 146.116 242.872 142.833 239.319 142.833C235.765 142.833 232.884 146.116 232.884 150.166C232.884 154.217 235.765 157.5 239.319 157.5Z" fill="#FBBEBE"/>
<path d="M245.111 149.86C245.705 150.941 246.484 151.876 247.402 152.607C248.319 153.339 249.356 153.852 250.451 154.118L249.967 156.117C249.13 159.567 248.174 163.215 245.852 165.606C246.106 164.438 245.777 163.181 245.197 162.176C244.577 161.199 243.842 160.323 243.013 159.574L239.31 155.902C239.2 155.809 239.105 155.694 239.032 155.562C238.942 155.304 238.942 155.016 239.032 154.758C239.504 153.086 240.852 152.033 241.943 150.909C242.492 150.323 242.983 149.671 243.407 148.964C244.166 147.762 244.624 148.964 245.111 149.86Z" fill="#FBBEBE"/>
<path d="M230.84 142.796L230.697 141.433C231.713 141.733 232.675 140.752 233.324 139.73C233.972 138.708 234.576 137.509 235.565 137.087C236.76 136.569 238.04 137.397 239.187 138.078C240.474 138.894 241.886 139.42 243.347 139.628C243.58 139.637 243.811 139.681 244.035 139.757C244.782 140.061 245.137 141.12 245.245 142.097C245.353 143.075 245.323 144.097 245.693 144.962C245.971 145.616 246.452 146.103 246.745 146.747C247.531 148.484 246.772 150.855 247.603 152.558L245.541 150.402C245.35 150.204 245.084 150 244.877 150.167C244.671 150.334 244.701 150.586 244.632 150.814C244.432 151.495 243.7 151.686 243.165 151.423C242.63 151.161 242.244 150.582 241.853 150.061C240.941 148.835 239.857 147.758 238.566 147.234C238.007 146.99 237.409 146.884 236.811 146.925C236.214 146.965 235.631 147.151 235.102 147.469C234.139 148.089 233.434 149.533 232.257 149.584C230.64 149.652 229.967 146.222 229.217 144.867C229.49 144.631 229.682 144.294 229.76 143.914C229.838 143.533 229.796 143.134 229.642 142.786C229.773 142.728 230.819 142.574 230.84 142.796Z" fill="#464353"/>
<path d="M257.66 237.473C256.388 238.766 254.737 239.467 253.034 239.438C252.6 239.438 252 239.534 251.997 240.028C252.004 240.175 252.048 240.316 252.122 240.436C252.662 241.458 253.513 242.217 254.513 242.569C255.439 242.889 256.432 242.834 257.4 242.78L260.224 242.613C260.756 242.579 261.291 242.548 261.823 242.473C262.355 242.398 262.929 242.272 263.485 242.18C264.846 241.959 266.223 241.884 267.597 241.959C267.962 241.976 268.383 241.959 268.61 241.646C268.837 241.332 268.715 240.767 268.631 240.314C268.464 239.381 268.631 238.403 268.476 237.466C268.204 235.821 266.963 234.564 265.595 233.968C264.324 233.416 262.071 232.786 260.867 233.703C259.576 234.69 258.799 236.298 257.66 237.473Z" fill="#3F3D56"/>
<path d="M260.457 182.426C260.708 183.788 261.853 184.81 261.889 186.173C261.915 187.276 261.222 188.216 260.726 189.153C260.252 190.134 259.852 191.16 259.531 192.219C258.587 194.966 257.419 197.606 256.04 200.104C255.376 201.299 254.635 202.6 254.788 204.007C254.892 204.664 255.094 205.295 255.385 205.874L257.373 210.373C257.809 211.272 258.15 212.227 258.389 213.217C258.559 214.072 258.577 214.958 258.688 215.83C259.002 218.589 260.137 221.368 259.468 224.042C259.408 224.274 259.199 224.553 259.04 224.383C259.695 225.779 260.236 227.189 260.173 228.773C260.146 229.604 259.922 230.476 260.194 231.246C260.348 231.546 260.449 231.877 260.493 232.22C260.493 232.445 260.4 232.66 260.379 232.902C260.326 233.538 260.837 234.07 261.372 234.264C261.906 234.458 262.483 234.451 263.021 234.635C264.058 234.976 264.793 235.998 265.681 236.706C266.58 237.417 267.642 237.811 268.735 237.84C268.89 237.859 269.047 237.824 269.184 237.738C269.262 237.661 269.325 237.565 269.368 237.457C269.412 237.35 269.434 237.233 269.435 237.115C269.482 236.551 269.408 235.982 269.217 235.459C269.026 234.935 268.725 234.474 268.341 234.114C268.174 233.993 268.035 233.827 267.937 233.63C267.887 233.456 267.874 233.27 267.899 233.089C268.06 230.613 268.021 228.125 267.782 225.657C267.674 224.875 267.639 224.083 267.677 223.293C267.737 222.635 267.911 221.981 267.845 221.324C267.779 220.667 267.489 220.074 267.316 219.44C267.017 218.316 267.095 217.111 267.062 215.932C267.008 213.888 266.599 211.886 266.189 209.896C266.031 209.116 265.851 208.296 265.364 207.716C264.952 207.226 264.285 206.753 264.441 206.099C264.526 205.856 264.654 205.637 264.817 205.455C265.01 205.18 265.152 204.864 265.233 204.525C265.315 204.185 265.335 203.831 265.293 203.483C265.467 203.536 265.653 203.517 265.817 203.43C265.981 203.343 266.112 203.192 266.189 203.006C269.42 201.272 272.032 197.798 273.182 193.942C273.247 193.658 273.348 193.386 273.481 193.135C273.78 192.658 274.3 192.454 274.76 192.188C276.207 191.36 277.208 189.804 278.125 188.281C278.66 187.395 279.192 186.483 279.423 185.444C279.548 184.772 279.608 184.087 279.602 183.4L279.683 179.851C279.699 179.621 279.678 179.391 279.623 179.17C279.547 178.958 279.433 178.766 279.288 178.608C278.412 177.544 277.26 176.828 276.001 176.564C275.152 176.39 274.285 176.424 273.427 176.342C271.763 176.186 270.119 175.6 268.454 175.736C265.836 175.954 263.508 178.022 262.274 180.661C261.841 181.605 261.386 182.426 260.457 182.426Z" fill="#464353"/>
<path d="M245.933 159.346C245.971 159.893 245.906 160.443 245.744 160.96C245.541 161.458 245.027 161.842 244.582 161.642C244.716 161.301 244.358 160.896 244.026 160.94C243.862 160.981 243.709 161.068 243.581 161.192C243.453 161.316 243.353 161.474 243.291 161.652C243.068 162.158 242.994 162.732 243.079 163.29C243.183 163.971 243.536 164.653 243.443 165.334C243.369 165.913 242.995 166.492 243.195 167.037C243.324 167.282 243.485 167.502 243.673 167.691C243.936 168.058 244.065 168.526 244.033 168.998C244.001 169.471 243.812 169.911 243.503 170.228L248.518 170.341C248.336 171.298 248.709 172.276 249.14 173.124C250.344 175.455 252.005 177.437 253.994 178.914C255.982 180.391 258.243 181.324 260.601 181.639C260.473 181.725 260.364 181.841 260.281 181.981C260.199 182.12 260.144 182.279 260.121 182.445C260.098 182.611 260.108 182.781 260.149 182.943C260.191 183.105 260.263 183.254 260.362 183.38C260.768 183.839 261.458 183.781 261.969 183.482C262.48 183.182 262.884 182.688 263.35 182.307C264.173 181.639 265.178 181.329 266.183 181.435C266.811 181.503 267.421 181.734 268.051 181.775C269.91 181.888 271.506 180.365 273.284 179.732C274.587 179.275 276.061 179.275 277.169 178.349C277.642 177.95 278.027 177.296 277.89 176.646C277.773 176.272 277.589 175.931 277.349 175.644C276.718 174.718 276.347 173.6 275.899 172.548C275.005 170.462 273.775 168.586 272.274 167.016C271.143 165.887 269.945 164.848 268.688 163.907C268.382 163.646 268.056 163.418 267.713 163.225C267.257 163.056 266.812 162.85 266.381 162.609C265.783 162.187 265.451 161.441 265 160.838C264.005 159.516 262.478 158.906 261.252 157.868C260.43 157.186 259.707 156.253 258.724 155.916C258.249 155.752 257.741 155.739 257.262 155.575C256.181 155.2 255.392 154.104 254.328 153.661C253.485 153.32 252.558 153.402 251.668 153.276C250.688 153.138 249.752 152.732 248.939 152.094C248.669 151.846 248.367 151.648 248.043 151.508C246.701 151.042 246.59 153.893 246.465 154.884C246.265 156.399 245.933 157.857 245.933 159.346Z" fill="#1BA64E"/>
<path d="M247.242 168.918C247.466 171.7 245.622 174.398 246.16 177.126C246.273 177.709 246.495 178.261 246.575 178.829C246.799 180.447 245.951 181.98 245.141 183.332L238.198 194.947C237.92 195.458 237.586 195.927 237.206 196.344C235.876 197.706 233.886 197.55 232.143 197.952C230.919 198.235 229.762 198.816 228.751 199.655C228.707 199.694 228.678 199.752 228.67 199.815C228.662 199.878 228.675 199.943 228.707 199.995C228.993 200.445 229.374 200.805 229.815 201.044C230.256 201.282 230.742 201.39 231.229 201.358C231.411 201.634 231.229 202.039 230.978 202.23C230.604 202.526 230.081 202.604 230.019 203.326C229.992 203.577 230.036 203.831 230.144 204.052C230.426 204.539 230.862 204.883 231.36 205.013C233.751 205.85 236.36 204.379 238.159 202.376C239.958 200.373 241.25 197.846 243.019 195.806C243.996 194.678 245.111 193.711 246.112 192.618C248.123 190.438 249.683 187.784 251.193 185.124C251.685 184.352 252.058 183.489 252.292 182.573C252.478 181.667 252.394 180.71 252.609 179.81C252.89 178.635 253.646 177.695 254.274 176.711C255.508 174.776 256.33 172.412 256.166 170.028C256.001 167.644 254.71 165.297 252.738 164.486C252.126 164.207 251.452 164.16 250.816 164.353C250.009 164.636 249.411 165.399 248.858 166.128L247.541 167.862C247.212 168.245 246.952 168.697 246.775 169.194C246.69 169.443 246.67 169.715 246.718 169.976C246.765 170.238 246.879 170.479 247.044 170.668" fill="#FBBEBE"/>
<path d="M250.756 157.483C249.842 157.544 248.837 157.646 248.192 158.389C247.923 158.73 247.705 159.119 247.546 159.54C246.922 160.995 246.312 162.514 246.267 164.132C246.228 165.426 246.566 166.69 246.73 167.97C246.874 169.033 246.509 170.116 246.432 171.193C247.564 170.798 249.059 170.259 250.087 169.592C250.76 169.089 251.476 168.665 252.223 168.325C253.314 167.913 255.146 168.621 256.174 169.203C256.231 168.372 255.687 166.932 255.744 166.1C255.753 165.753 255.807 165.408 255.905 165.079C256.06 164.73 256.243 164.398 256.452 164.087C256.849 163.356 257.031 162.501 256.974 161.644C256.916 160.787 256.622 159.973 256.133 159.319C255.215 158.14 253.775 157.697 252.403 157.517C251.538 157.402 250.667 157.367 249.797 157.411" fill="#1BA64E"/>
<path d="M115.359 133.654L109.466 123.912C109.466 123.912 109.355 121.501 108.969 120.939C108.584 120.377 108.886 119.123 108.886 119.123C108.886 119.123 109.301 118.442 108.943 118.371C108.584 118.299 108.886 116.773 108.886 116.773L108.859 114.331C108.859 114.331 109.191 111.981 108.916 111.419C108.834 111.266 108.794 111.09 108.799 110.912C108.803 110.733 108.853 110.56 108.943 110.414C108.943 110.414 109.271 109.068 108.943 108.711C108.614 108.353 108.695 106.269 108.775 104.606C108.856 102.944 108.198 102.007 108.198 101.759C108.198 101.51 106.023 99.0645 106.023 98.8431C106.023 98.6217 104.645 97.7157 103.817 97.4807C102.989 97.2457 102.58 97.0413 102.607 96.9153C102.634 96.7892 101.313 96.2919 101.313 96.2919C101.313 96.2919 100.156 96.1966 99.7139 95.5392C99.2716 94.8818 97.9207 94.691 97.8879 94.6842L97.861 94.5548C97.861 94.5071 97.846 94.4594 97.8371 94.4117C97.9462 94.2136 98.0459 94.0089 98.1359 93.7986L98.2136 93.6079C98.6976 93.6114 99.1707 93.4436 99.5674 93.1276C99.7628 92.943 99.9224 92.7142 100.036 92.4556C100.15 92.1971 100.215 91.9144 100.228 91.6255C100.251 91.0465 100.14 90.4706 99.9052 89.9565C99.6631 89.3945 99.3074 88.8086 99.433 88.1955C99.4867 87.9333 99.6242 87.7016 99.6959 87.4428C99.803 86.9374 99.7322 86.4043 99.4987 85.9577C99.2895 85.5047 98.9996 85.1028 98.7665 84.6634C98.4709 84.1008 98.273 83.4787 98.1837 82.8309C98.1671 82.4862 98.0952 82.1479 97.9715 81.8329C97.8465 81.6108 97.6815 81.4216 97.4874 81.2777C96.625 80.5765 95.5845 80.2175 94.5257 80.2558C93.7756 80.2831 93.0314 80.5147 92.2843 80.4091C91.8392 80.3218 91.4013 80.1919 90.9753 80.0208C90.0518 79.7074 88.9849 79.5814 88.181 80.1843C87.3771 80.7872 87.0573 81.9725 86.5104 82.9092C86.0292 83.7267 85.3149 84.4147 84.9563 85.2935C84.9563 85.2935 84.9563 85.2594 84.9563 85.2458C84.866 85.4459 84.7968 85.6574 84.7501 85.8759C84.6475 86.5699 84.6895 87.2816 84.8726 87.9537C84.9131 88.3155 85.0722 88.6465 85.3179 88.8802C85.5899 89.0811 85.9635 89.0334 86.2803 89.0982L86.2444 89.2753C85.9219 91.036 86.1918 92.8705 87.0005 94.4151C87.8093 95.9596 89.0979 97.1012 90.6107 97.6135C90.6107 97.6782 90.6107 97.7395 90.6107 97.8043C90.61 97.9842 90.6001 98.1639 90.5808 98.3424C90.5808 98.3424 87.8104 97.6919 87.0662 98.1313C86.3221 98.5706 84.8637 98.9147 84.6425 99.1531C84.4214 99.3915 83.8715 99.2178 83.3754 100.689C82.8793 102.161 82.8255 103.663 82.1799 104.354C81.5344 105.046 81.2176 105.512 81.1877 106.013C81.1578 106.514 81.2714 106.64 81.0234 106.796C80.7753 106.953 80.4256 107.611 80.5272 107.863C80.5653 108.035 80.5571 108.216 80.5038 108.383C80.4506 108.55 80.3546 108.695 80.2284 108.799C80.0977 108.904 79.9933 109.046 79.9257 109.211C79.858 109.376 79.8295 109.558 79.8429 109.739C79.8429 109.739 79.6755 110.421 79.29 110.588C78.9044 110.754 78.6564 111.776 78.6564 111.776L77.4072 113.411L74.9326 110.291C74.7468 110.058 74.4875 109.918 74.2114 109.902C73.9353 109.886 73.6649 109.995 73.4593 110.206L72.2429 111.453C71.7742 111.582 71.3505 111.87 71.0266 112.277C70.763 112.589 70.5496 112.951 70.396 113.347L69.7325 114.028C69.5229 114.324 69.3946 114.684 69.3638 115.062C69.333 115.441 69.4009 115.822 69.5592 116.157L71.1461 118.156V118.173C70.5839 118.229 70.0497 118.477 69.613 118.885C67.246 121.269 67.2221 123.459 67.5748 124.461C67.9274 125.462 70.9339 129.315 70.9339 129.315C70.9339 129.315 72.6793 131.9 75.1986 133.272L75.1807 133.296C75.1288 133.358 75.08 133.423 75.0343 133.49L74.9924 133.552L74.9536 133.613L74.9087 133.688C74.8967 133.708 74.8857 133.728 74.8759 133.749L74.828 133.838C74.8169 133.858 74.807 133.878 74.7982 133.899C74.7772 133.94 74.7593 133.981 74.7414 134.022C74.7348 134.035 74.7288 134.049 74.7234 134.063C74.6995 134.117 74.6756 134.172 74.6547 134.233L74.6308 134.294C74.6158 134.335 74.6039 134.376 74.589 134.42C74.5796 134.447 74.5717 134.474 74.565 134.502L74.5292 134.625C74.5195 134.654 74.5115 134.683 74.5053 134.713C74.5053 134.758 74.4814 134.802 74.4724 134.849C74.4634 134.897 74.4575 134.904 74.4515 134.935C74.4455 134.965 74.4216 135.081 74.4096 135.159C74.4096 135.187 74.4096 135.217 74.3947 135.248C74.3797 135.279 74.3798 135.354 74.3708 135.408C74.3618 135.463 74.3708 135.483 74.3708 135.524L74.3529 135.677V135.8C74.3529 135.858 74.3529 135.916 74.3379 135.977C74.323 136.038 74.3379 136.048 74.3379 136.086C74.3379 136.185 74.3379 136.283 74.3379 136.389C74.2841 140.054 74.4724 140.585 74.4724 140.585C74.5953 140.924 74.7958 141.219 75.0529 141.439C75.31 141.658 75.6143 141.796 75.9338 141.835C76.0906 141.85 76.2483 141.84 76.403 141.808C77.8375 141.526 81.1847 140.868 82.3802 141.127C83.0944 141.277 84.4124 141.052 85.3508 140.851L85.5989 140.797L85.7692 141.42L86.3131 141.25L86.7764 141.553L87.0752 141.747C87.6191 143.845 89.8247 143.13 89.8247 143.13L90.3477 143.47L95.6644 143.627C96.2612 144.037 96.8918 144.379 97.5472 144.649C97.6337 144.681 97.7228 144.704 97.8132 144.717C98.3102 144.763 98.8093 144.773 99.3074 144.748C99.7139 144.748 100.028 144.717 100.028 144.717C100.028 144.717 99.9739 143.072 99.8962 141.229C101.544 141.183 103.189 141.029 104.821 140.769C107.66 140.204 108.844 137.261 109.28 135.687C109.411 136.33 109.504 136.982 109.558 137.639C109.674 138.217 109.822 138.786 110.001 139.342C110.153 139.787 110.354 140.208 110.598 140.596C112.69 139.782 111.423 138.552 110.984 138.027C110.544 137.503 111.283 137.057 111.283 137.057C111.283 137.057 111.862 136.617 111.806 136.212C111.749 135.807 111.722 135.367 113.599 135.398C115.476 135.429 115.359 133.654 115.359 133.654ZM86.2743 113.656C86.2982 113.834 86.5731 115.765 86.7943 116.272C86.8603 116.607 86.8814 116.952 86.857 117.294C85.7483 117.192 84.5917 117.138 84.5917 117.138C84.6242 117.184 84.6449 117.239 84.6515 117.298L84.4752 117.253L84.2241 117.185L86.2683 113.639L86.2743 113.656ZM82.2218 121L84.1434 121.341L84.3048 121.368C84.2505 121.705 84.2175 122.047 84.2062 122.39C84.2062 122.424 84.248 122.461 84.3108 122.506C84.284 122.678 84.272 122.852 84.2749 123.027C84.3048 123.197 85.2014 123.572 86.2324 123.882C86.2175 123.946 86.2055 124.008 86.1906 124.062C85.2791 123.517 83.8476 123.262 83.6832 122.856C83.5188 122.451 78.6415 120.51 78.6415 120.51L78.1573 120.234L79.4394 120.51L79.7921 120.469C80.591 120.706 81.4026 120.883 82.2218 121Z" fill="url(#paint0_linear_99_4161)"/>
<path d="M109.089 135.017C109.089 135.017 108.327 140.276 104.451 141.052C100.575 141.829 87.6341 141.676 87.6341 141.676C87.6341 141.676 80.2344 140.46 77.5596 133.337C74.8848 126.215 73.1634 123.378 75.4676 123.255C77.7718 123.133 90.1295 128.024 90.8378 128.078C91.5461 128.133 109.773 117.25 109.089 135.017Z" fill="#65617D"/>
<path opacity="0.05" d="M109.089 135.017C109.089 135.017 108.327 140.276 104.451 141.052C100.575 141.829 87.6341 141.676 87.6341 141.676C87.6341 141.676 80.2344 140.46 77.5596 133.337C74.8848 126.215 73.1634 123.378 75.4676 123.255C77.7718 123.133 90.1295 128.024 90.8378 128.078C91.5461 128.133 109.773 117.25 109.089 135.017Z" fill="black"/>
<path d="M74.3883 140.872C74.5085 141.209 74.7064 141.502 74.9611 141.721C75.2157 141.94 75.5177 142.076 75.8348 142.115C75.9917 142.126 76.1492 142.116 76.304 142.084C77.7236 141.805 81.0529 141.151 82.2274 141.403C82.9327 141.55 84.2387 141.328 85.1681 141.131C85.7867 140.998 86.241 140.872 86.241 140.872C86.241 140.872 85.1472 136.733 85.0127 136.611C84.8782 136.488 80.0965 133.204 80.0965 133.204L76.313 132.895C75.8036 132.981 75.3433 133.289 75.0279 133.753C74.6304 134.305 74.2867 135.207 74.2628 136.689C74.2 140.337 74.3883 140.872 74.3883 140.872Z" fill="#3F3D56"/>
<path opacity="0.05" d="M74.3887 140.872C74.5089 141.209 74.7068 141.502 74.9615 141.721C75.2161 141.94 75.5181 142.076 75.8352 142.115C75.4646 141.57 75.1214 141.001 74.8071 140.412L74.828 137.394C74.7529 136.566 74.8489 135.73 75.1084 134.952C75.3679 134.174 75.7836 133.477 76.3223 132.915C76.3223 132.915 74.3289 133.068 74.2722 136.709C74.2154 140.351 74.3887 140.872 74.3887 140.872Z" fill="black"/>
<path opacity="0.1" d="M90.7986 134.27L94.3221 131.127L99.8629 124.904L98.3686 124.825C98.1445 124.989 97.5169 125.506 97.493 126.126C97.4661 126.886 95.9987 126.181 95.2306 126.613C94.4626 127.046 90.7269 132.506 90.0724 132.469C89.4179 132.431 88.8979 132.09 88.6229 132.622L88.605 132.656L90.7986 134.27Z" fill="black"/>
<path opacity="0.1" d="M75.019 133.76C75.1446 133.828 75.2731 133.896 75.4016 133.957C78.0764 135.265 81.3787 138.004 81.6268 138.501C81.7762 138.804 83.6919 140.129 85.1682 141.124C85.7869 140.991 86.2411 140.865 86.2411 140.865C86.2411 140.865 85.1473 136.726 85.0128 136.604C84.8783 136.481 80.0966 133.198 80.0966 133.198L76.3131 132.888C75.7986 132.975 75.3344 133.288 75.019 133.76Z" fill="black"/>
<path d="M67.5957 124.842C67.9483 125.836 70.9249 129.665 70.9249 129.665C70.9249 129.665 72.8077 132.465 75.4855 133.752C78.1633 135.04 81.4626 137.799 81.7077 138.296C81.8661 138.616 83.9999 140.081 85.5002 141.086L85.8379 141.31L86.5821 141.804L86.9766 142.06C86.9766 142.06 87.8911 141.225 88.8026 140.384C89.7141 139.543 90.5957 138.718 90.5957 138.681C90.5957 138.643 90.9783 137.53 90.8946 137.468C90.8109 137.407 90.6645 137.005 90.3178 136.504C89.9519 135.949 89.4756 135.501 88.9281 135.196C88.136 134.732 87.5043 133.978 87.135 133.054C87.135 133.054 87.0154 132.955 86.8361 132.822C86.4644 132.531 86.0491 132.32 85.6108 132.199C85.0131 132.114 83.8894 130.714 83.8894 130.714C83.4524 130.39 83.088 129.953 82.8254 129.44C82.5266 128.759 78.3037 125.441 77.9122 125.135L88.175 132.649L90.6316 134.447L94.1551 131.307L99.6959 125.084L97.8669 124.988C95.1772 124.855 90.3955 124.648 89.7978 124.804C89.3082 124.933 88.8036 124.971 88.3035 124.917C88.3035 124.917 86.9407 124.985 86.0382 124.443C85.1356 123.902 83.716 123.646 83.5517 123.244C83.3873 122.842 78.5578 120.914 78.5578 120.914C78.5578 120.914 71.9829 116.933 69.6309 119.297C67.2789 121.66 67.24 123.84 67.5957 124.842Z" fill="#65617D"/>
<path d="M88.8057 102.004L89.6514 105.209L90.7453 112.427L94.7589 112.737L95.9065 110.557L97.0661 108.364C97.0661 108.364 97.7893 105.448 98.3093 102.628C98.7666 100.131 99.0684 97.7057 98.5693 97.4435C98.124 97.2118 97.8341 96.3705 97.6429 95.4645C97.619 95.3555 97.598 95.2397 97.5801 95.1239C97.4463 94.3582 97.3564 93.5833 97.3111 92.8043C97.3111 92.8043 88.9043 92.307 90.0788 96.2581C90.2883 96.9331 90.3955 97.6438 90.3956 98.3597C90.3956 98.5436 90.3956 98.7242 90.3657 98.8945C90.3074 99.5073 90.1388 100.1 89.8703 100.635C89.6019 101.17 89.2394 101.636 88.8057 102.004Z" fill="#EE8E9E"/>
<path d="M87.0601 101.476L87.3589 106.926L88.0403 111.561L88.8054 113.711L89.4898 125.455C89.4898 125.455 96.0646 126.324 97.6725 125.438C97.791 125.386 97.8945 125.298 97.9713 125.183C99.9049 121.855 99.2714 112.215 99.2714 112.215L100.007 105.992L99.5164 102.763L98.321 102.62L97.4065 102.508C97.4065 102.508 97.2003 102.797 96.9014 103.247C96.0915 104.463 94.6032 106.861 94.7048 107.859C94.8393 109.221 94.5405 110.628 94.0742 110.846C93.608 111.064 93.2285 111.439 93.1478 111.064C93.0316 110.75 93.0024 110.403 93.0641 110.07C93.1478 109.538 92.7085 107.92 92.7085 107.92C92.7085 107.92 91.9733 106.023 92.0271 105.216C92.0809 104.409 91.9464 103.472 91.7282 103.254C91.51 103.036 91.2082 102.818 91.4533 101.823C91.6983 100.829 90.3774 98.8906 90.3774 98.8906L87.0601 101.476Z" fill="#E3E8F4"/>
<path opacity="0.1" d="M95.7537 115.073L96.0287 124.375L97.6036 125.373C97.7219 125.319 97.8251 125.23 97.9025 125.115C99.8361 121.787 99.2025 112.147 99.2025 112.147L99.9407 105.924L99.4476 102.695L98.2522 102.552C98.7124 100.056 99.0113 97.6338 98.5122 97.3681C98.0669 97.1365 97.777 96.2952 97.5887 95.3926L96.737 101.973C96.737 101.973 96.8087 102.566 96.8326 103.179C96.868 103.567 96.8447 103.958 96.7638 104.337C96.6534 104.846 96.6351 105.376 96.7101 105.894C96.2169 106.882 95.9719 108.714 95.8523 110.482C95.691 112.832 95.7537 115.073 95.7537 115.073Z" fill="black"/>
<path d="M97.613 95.2285C97.613 95.2285 98.9907 95.4227 99.427 96.0766C99.8634 96.7306 101.011 96.826 101.011 96.826C101.011 96.826 102.32 97.3233 102.293 97.4459C102.266 97.5685 102.676 97.7593 103.488 98.0079C104.301 98.2566 105.673 99.1592 105.673 99.3704C105.673 99.5816 107.828 102.014 107.828 102.262C107.828 102.511 108.482 103.444 108.402 105.093C108.321 106.741 108.237 108.839 108.566 109.18C108.895 109.521 108.566 110.859 108.566 110.859C108.478 111.005 108.428 111.177 108.423 111.354C108.419 111.531 108.459 111.706 108.539 111.857C108.811 112.416 108.482 114.749 108.482 114.749L108.512 117.178C108.512 117.178 108.213 118.7 108.566 118.765C108.919 118.83 108.512 119.511 108.512 119.511C108.512 119.511 108.213 120.754 108.593 121.316C108.973 121.878 109.083 124.269 109.083 124.269L114.926 133.946C114.926 133.946 115.009 135.721 113.154 135.69C111.298 135.659 111.322 136.095 111.378 136.497C111.435 136.899 110.858 137.339 110.858 137.339C110.858 137.339 110.123 137.775 110.559 138.303C110.996 138.831 112.251 140.047 110.177 140.854C109.933 140.47 109.732 140.052 109.579 139.611C109.403 139.062 109.258 138.501 109.143 137.931C109.143 137.931 108.952 135.564 108.569 135.254C108.187 134.944 108.24 133.449 108.24 133.449C108.24 133.449 108.787 132.236 108.022 131.746C107.257 131.255 96.1755 124.252 96.1755 124.252L95.9065 114.947C95.9065 114.947 95.7152 108.07 96.8628 105.767C96.7879 105.249 96.8062 104.72 96.9166 104.211C97.1079 103.652 96.8897 101.847 96.8897 101.847L97.613 95.2285Z" fill="#3F3D56"/>
<path opacity="0.1" d="M90.4579 98.9755C90.4579 98.9755 87.7144 98.3317 86.9762 98.7677C86.238 99.2037 84.7946 99.5443 84.5854 99.7895C84.3762 100.035 83.8233 99.8542 83.3302 101.315C82.8371 102.777 82.7862 104.272 82.1557 104.957C81.5251 105.641 81.2023 106.108 81.1754 106.605C81.1485 107.103 81.2561 107.229 81.011 107.382C80.766 107.535 80.4133 108.192 80.5179 108.441C80.6225 108.69 86.1962 114.167 86.1962 114.167C86.1962 114.167 86.4712 116.251 86.7162 116.779C86.9613 117.307 86.4443 124.59 85.8974 125.087C85.3504 125.584 89.5703 125.543 89.5703 125.543C89.5703 125.543 89.7616 120.775 89.9259 120.516C90.0903 120.257 89.8154 115.165 89.8154 115.165C89.8154 115.165 89.7885 110.808 90.1441 109.657C90.4997 108.506 90.443 104.677 90.443 104.677C90.443 104.677 90.7568 102.382 91.1393 101.847C91.5218 101.312 90.4579 98.9755 90.4579 98.9755Z" fill="black"/>
<path d="M90.3775 98.8841C90.3775 98.8841 87.634 98.2404 86.8958 98.6729C86.1576 99.1055 84.7112 99.4529 84.5049 99.6948C84.2987 99.9366 83.7399 99.7561 83.2497 101.221C82.7596 102.685 82.7028 104.174 82.0752 104.858C81.4476 105.543 81.1189 106.01 81.092 106.507C81.0651 107.004 81.1757 107.13 80.9276 107.287C80.6796 107.444 80.3299 108.094 80.4375 108.343C80.5451 108.592 86.1158 114.069 86.1158 114.069C86.1158 114.069 86.3877 116.153 86.6358 116.681C86.8838 117.209 86.3608 124.492 85.8139 124.989C85.267 125.486 89.5018 125.442 89.5018 125.442C89.5018 125.442 89.6931 120.673 89.8545 120.418C90.0159 120.162 89.7469 115.063 89.7469 115.063C89.7469 115.063 89.72 110.71 90.0756 109.559C90.4313 108.408 90.3894 104.579 90.3894 104.579C90.3894 104.579 90.7032 102.283 91.0858 101.749C91.4683 101.214 90.3775 98.8841 90.3775 98.8841Z" fill="#3F3D56"/>
<path opacity="0.1" d="M90.0907 96.2506C90.3002 96.9256 90.4074 97.6363 90.4075 98.3522C91.7485 98.7999 93.1822 98.7247 94.4815 98.1385C95.7807 97.5524 96.8712 96.4888 97.5801 95.1164C97.4462 94.3507 97.3564 93.5759 97.3111 92.7968C97.3111 92.7968 88.9162 92.2961 90.0907 96.2506Z" fill="black"/>
<path d="M85.9395 91.3323C85.9384 93.1585 86.5522 94.9155 87.6544 96.241C88.7566 97.5665 90.2631 98.3594 91.8631 98.4561C93.4631 98.5529 95.0348 97.9462 96.2538 96.7611C97.4729 95.5759 98.2464 93.9028 98.4149 92.0868C98.5834 90.2707 98.134 88.4502 97.1594 87.0007C96.1848 85.5512 94.7593 84.5833 93.1769 84.2965C91.5945 84.0097 89.9758 84.4259 88.6548 85.4594C87.3337 86.4928 86.411 88.0646 86.0769 89.8507C85.9853 90.3376 85.9393 90.8343 85.9395 91.3323Z" fill="#EE8E9E"/>
<path d="M81.9258 107.832L80.4315 108.36C80.4697 108.532 80.4616 108.713 80.4083 108.879C80.355 109.046 80.259 109.19 80.1327 109.293C80.0026 109.397 79.899 109.538 79.8323 109.702C79.7657 109.865 79.7383 110.047 79.7531 110.227C79.7531 110.227 79.5887 110.908 79.2062 111.068C78.8237 111.228 78.5786 112.25 78.5786 112.25L77.3234 113.898C77.3234 113.898 76.8572 114.334 76.9409 114.552C77.0245 114.77 76.4478 114.832 76.4478 114.832L76.7466 120.37L79.3407 120.932L80.9515 120.745L82.2605 120.186L83.4081 119.406L83.9252 117.884L86.2204 113.898L81.9258 107.832Z" fill="#3F3D56"/>
<path d="M76.8213 115.257C76.8213 115.257 73.4921 109.784 71.0056 112.737C68.5191 115.69 72.0157 120.486 72.8346 120.329C73.6534 120.172 77.5595 119.924 77.5595 119.924L76.8213 115.257Z" fill="#EE8E9E"/>
<path d="M84.6647 112.89L69.9578 104.335C69.7314 104.203 69.4542 104.306 69.3386 104.564L63.6038 117.37C63.4882 117.628 63.5781 117.944 63.8045 118.075L78.5114 126.631C78.7378 126.762 79.015 126.66 79.1306 126.402L84.8654 113.596C84.981 113.338 84.8911 113.022 84.6647 112.89Z" fill="#3F3D56"/>
<path d="M83.2968 113.651L70.2456 106.059L65.2254 117.269L78.2767 124.861L83.2968 113.651Z" fill="#1BA64E"/>
<path d="M67.2337 111.64C67.3658 111.64 67.4728 111.518 67.4728 111.367C67.4728 111.217 67.3658 111.095 67.2337 111.095C67.1017 111.095 66.9946 111.217 66.9946 111.367C66.9946 111.518 67.1017 111.64 67.2337 111.64Z" fill="#E6E8EC"/>
<path d="M81.3609 120.07C81.5804 120.07 81.7583 119.867 81.7583 119.617C81.7583 119.367 81.5804 119.164 81.3609 119.164C81.1413 119.164 80.9634 119.367 80.9634 119.617C80.9634 119.867 81.1413 120.07 81.3609 120.07Z" fill="#E6E8EC"/>
<path d="M74.6666 116.409C74.6367 120.517 82.0902 121.389 82.0902 121.389L83.9939 121.729L84.8487 121.882L85.2043 117.87C85.2043 117.87 84.8128 117.802 84.3257 117.672C83.6024 117.482 82.667 117.151 82.4727 116.685C82.1589 115.911 74.6875 112.301 74.6666 116.409Z" fill="#EE8E9E"/>
<path opacity="0.1" d="M86.0767 89.8504C86.248 89.8649 86.4097 89.9468 86.5339 90.0821C86.7431 90.3375 86.7551 90.7905 87.03 90.9472C87.1328 90.9966 87.246 91.0108 87.3558 90.9881C88.082 90.8723 88.5004 89.939 89.1997 89.6801C89.6063 89.5611 90.0363 89.6031 90.4191 89.7993C90.5746 89.8568 90.7146 89.9588 90.8255 90.0957C91.0586 90.4363 90.8942 90.9472 91.0018 91.3628C91.1513 91.9418 91.7579 92.17 92.2809 92.245C92.8039 92.3199 93.3957 92.3642 93.7453 92.8138C93.8611 92.9824 93.9441 93.177 93.9889 93.3849C94.0337 93.5927 94.0393 93.8091 94.0054 94.0196C93.9739 94.1661 93.9739 94.3192 94.0054 94.4658C94.1488 94.9324 94.8571 94.8609 95.0424 94.493C95.1799 94.2239 95.138 94.0025 95.4578 93.9276C95.6862 93.9069 95.9155 93.9526 96.1242 94.0604C96.6806 94.278 97.2666 94.3807 97.8546 94.3636C98.2287 93.4544 98.4299 92.4654 98.4451 91.4613C98.4602 90.4573 98.2891 89.461 97.9427 88.5376C97.5964 87.6143 97.0828 86.7848 96.4355 86.1036C95.7882 85.4223 95.0219 84.9047 94.1868 84.5846C93.3517 84.2645 92.4666 84.1492 91.5897 84.2462C90.7127 84.3433 89.8637 84.6505 89.0982 85.1477C88.3327 85.6449 87.6681 86.3209 87.1479 87.1313C86.6277 87.9418 86.2637 88.8684 86.0797 89.8504H86.0767Z" fill="black"/>
<path d="M94.0027 94.2785C93.9714 94.1319 93.9714 93.9789 94.0027 93.8323C94.0369 93.6223 94.0313 93.4065 93.9865 93.1991C93.9416 92.9918 93.8585 92.7977 93.7427 92.6299C93.393 92.1769 92.8043 92.136 92.2783 92.0577C91.7523 91.9793 91.1486 91.7545 90.9992 91.1755C90.8916 90.7599 91.056 90.2524 90.8229 89.9118C90.7137 89.7726 90.5731 89.6701 90.4164 89.6155C90.0339 89.4183 89.604 89.3751 89.1971 89.4928C88.4978 89.7517 88.0794 90.685 87.3531 90.8008C87.2434 90.8252 87.1298 90.811 87.0274 90.7599C86.7524 90.6032 86.7285 90.1502 86.5313 89.8948C86.1996 89.4962 85.569 89.7551 85.1655 89.4588C84.9208 89.226 84.7627 88.8961 84.7232 88.5357C84.5425 87.8678 84.5015 87.1608 84.6037 86.4716C84.8397 85.3169 85.7483 84.5233 86.3251 83.5321C86.866 82.6124 87.1708 81.4475 87.9807 80.8378C88.7906 80.2281 89.8337 80.3644 90.7511 80.6743C91.1729 80.8459 91.6069 80.9758 92.0482 81.0626C92.7864 81.1648 93.5275 80.9366 94.2687 80.9094C95.3192 80.8707 96.3513 81.23 97.2035 81.9312C97.3956 82.0741 97.5587 82.2622 97.6816 82.483C97.8049 82.796 97.8778 83.1318 97.8968 83.4742C97.9841 84.1173 98.18 84.735 98.4736 85.2931C98.7007 85.7325 98.9906 86.1276 99.1969 86.5806C99.4274 87.0247 99.4981 87.5533 99.3941 88.0555C99.3224 88.3109 99.1849 88.5425 99.1311 88.8048C99.0116 89.4111 99.3612 89.9935 99.6003 90.5522C99.833 91.0634 99.9433 91.6356 99.9201 92.211C99.9073 92.4977 99.8426 92.7783 99.73 93.035C99.6173 93.2918 99.4592 93.5192 99.2656 93.7028C98.8597 94.0238 98.3758 94.1917 97.8819 94.1831C97.2829 94.2039 96.6856 94.1012 96.1186 93.88C95.9095 93.7738 95.6805 93.7281 95.4522 93.7471C95.1324 93.8221 95.1742 94.0435 95.0368 94.3125C94.8545 94.6736 94.1492 94.7451 94.0027 94.2785Z" fill="#3F3D56"/>
<path opacity="0.1" d="M90.6343 134.454L94.1579 131.314L99.6987 125.09L97.8697 124.995C97.6549 125.216 97.5179 125.519 97.4841 125.847C97.4572 126.606 95.9899 125.898 95.2218 126.334C94.4537 126.77 90.718 132.226 90.0635 132.189C89.409 132.151 88.889 131.811 88.6141 132.339L88.5961 132.373C88.4871 132.516 88.3403 132.615 88.1777 132.656L90.6343 134.454Z" fill="black"/>
<path d="M83.5366 134.236L85.3059 140.677L85.5838 141.699L86.4266 141.436L88.2855 140.854L96.5578 138.265C97.5999 138.214 98.6196 137.904 99.5464 137.359C101.11 136.36 102.9 135.916 104.687 136.082C105.781 136.198 106.997 135.659 108.007 133.534C108.007 133.534 110.299 125.819 104.513 123.609C98.7275 121.398 98.4496 124.784 98.4496 124.784L98.3689 124.838C98.1448 125.002 97.5172 125.519 97.4933 126.139C97.4664 126.899 95.999 126.194 95.2309 126.626C94.4628 127.059 90.7271 132.519 90.0726 132.482C89.4181 132.444 88.8981 132.103 88.6232 132.635L88.6052 132.669C88.402 132.986 87.7953 133.061 87.3919 133.071C87.2665 133.078 87.1408 133.078 87.0153 133.071L86.9615 133.088L86.5431 133.231L83.5366 134.236Z" fill="#65617D"/>
<path opacity="0.1" d="M83.9937 121.733L84.8484 121.886L85.204 117.873C85.204 117.873 84.8125 117.805 84.3254 117.676C84.4539 118.238 84.161 120.401 83.9937 121.733Z" fill="black"/>
<path opacity="0.1" d="M106.318 102.978C106.318 102.978 108.856 102.137 108.228 110.352C107.792 115.367 105.922 120.079 102.905 123.762C102.905 123.762 97.499 126.467 95.0693 126.031C92.6396 125.595 90.8674 125.503 90.8674 125.503C90.1018 125.062 89.2642 124.808 88.4078 124.757C87.045 124.695 84.1789 123.735 84.1222 123.418C84.0654 123.101 84.8334 118.534 84.5047 118.193C84.5047 118.193 88.3271 118.37 88.7096 118.684C89.0922 118.997 89.6391 118.776 90.0485 118.684C90.4579 118.592 91.7131 117.352 94.1966 118.442C94.1966 118.442 95.0424 118.534 95.3711 118.285C95.6391 118.143 95.9443 118.121 96.2259 118.224C96.4384 118.143 96.6396 118.029 96.8236 117.883C96.9043 117.761 97.5618 117.883 97.5618 117.883C97.6009 117.903 97.6433 117.913 97.6862 117.913C97.7291 117.912 97.7713 117.901 97.8102 117.881C97.849 117.86 97.8835 117.83 97.9113 117.793C97.9391 117.756 97.9595 117.712 97.9712 117.665C98.0576 117.411 98.1877 117.18 98.3537 116.984C98.3537 116.984 99.0889 112.256 100.482 110.482C100.593 110.371 100.678 110.231 100.73 110.073C100.783 109.916 100.8 109.746 100.78 109.579C100.667 109.075 103.043 101.98 106.318 102.978Z" fill="black"/>
<path d="M106.25 102.345C106.25 102.345 108.79 101.507 108.162 109.719C107.728 114.734 105.857 119.446 102.84 123.129C102.84 123.129 97.4333 125.837 95.0036 125.401C92.5739 124.965 90.7987 124.863 90.7987 124.863C90.0343 124.422 89.1976 124.168 88.3421 124.117C86.9763 124.052 84.1102 123.095 84.0564 122.778C84.0026 122.461 84.7647 117.894 84.439 117.55C84.439 117.55 88.2614 117.73 88.6439 118.044C89.0264 118.357 89.5704 118.132 89.9798 118.044C90.3892 117.955 91.6444 116.712 94.1309 117.798C94.1309 117.798 94.9767 117.894 95.3024 117.645C95.5706 117.504 95.875 117.481 96.1572 117.58C96.369 117.498 96.57 117.383 96.7549 117.24C96.8356 117.114 97.4901 117.24 97.4901 117.24C97.5292 117.26 97.5716 117.27 97.6145 117.269C97.6574 117.269 97.6997 117.258 97.7385 117.237C97.7773 117.217 97.8118 117.187 97.8396 117.15C97.8674 117.112 97.8878 117.069 97.8995 117.022C97.9859 116.768 98.116 116.536 98.282 116.341C98.282 116.341 99.0202 111.613 100.413 109.838C100.524 109.727 100.61 109.587 100.662 109.43C100.714 109.272 100.731 109.102 100.712 108.936C100.601 108.445 102.974 101.36 106.25 102.345Z" fill="#3F3D56"/>
<path opacity="0.1" d="M86.5342 133.214L90.1384 138.187L90.1623 138.16C90.1892 138.065 90.5448 137.009 90.4612 136.944C90.3775 136.879 89.7529 135.326 88.4977 134.672C87.8592 134.317 87.3231 133.762 86.9526 133.071L86.5342 133.214Z" fill="black"/>
<path opacity="0.1" d="M86.5819 141.822L86.9764 142.077C86.9764 142.077 87.8909 141.243 88.8024 140.401C89.7139 139.56 90.5955 138.736 90.5955 138.698C90.5955 138.661 90.9781 137.547 90.8944 137.486C90.8107 137.424 90.6643 137.023 90.3176 136.522C87.8729 135.742 89.421 137.676 89.6362 137.765C89.6362 137.765 86.6626 136.985 86.4982 140.681C86.484 141.064 86.5121 141.447 86.5819 141.822Z" fill="black"/>
<path d="M89.5972 143.385L90.1172 143.726L95.3861 143.879C95.9768 144.288 96.6015 144.631 97.2509 144.901C97.337 144.93 97.425 144.952 97.5139 144.966C98.003 145.011 98.4941 145.021 98.9843 144.996C99.3878 144.996 99.6986 144.966 99.6986 144.966C99.6986 144.966 99.4505 137.394 99.2623 136.597C99.1726 136.215 98.7303 136.297 98.294 136.488C97.9669 136.64 97.6511 136.822 97.3496 137.033C97.3496 137.033 95.1141 137.281 94.7585 137.499C94.4028 137.717 93.3927 137.373 92.7651 137.499C92.1375 137.625 91.0168 136.658 91.0168 136.658C87.9595 135.507 89.6809 137.653 89.8991 137.748C89.8991 137.748 86.9105 136.968 86.7581 140.664C86.6057 144.359 89.5972 143.385 89.5972 143.385Z" fill="#3F3D56"/>
<path d="M97.2151 140.462C97.2719 142.029 98.3448 143.974 98.9843 145.003C99.3878 145.003 99.6986 144.972 99.6986 144.972C99.6986 144.972 99.4506 137.4 99.2623 136.603C99.1726 136.222 98.7303 136.303 98.294 136.494C97.765 137.625 97.1673 139.195 97.2151 140.462Z" fill="#565387"/>
<path opacity="0.1" d="M97.2151 140.462C97.2719 142.029 98.3448 143.974 98.9843 145.003C99.3878 145.003 99.6986 144.972 99.6986 144.972C99.6986 144.972 99.4506 137.4 99.2623 136.603C99.1726 136.222 98.7303 136.303 98.294 136.494C97.765 137.625 97.1673 139.195 97.2151 140.462Z" fill="black"/>
<path opacity="0.05" d="M96.3129 140.67C96.6775 142.182 96.6715 143.879 97.2513 144.907C97.3374 144.937 97.4253 144.958 97.5143 144.972C98.0034 145.018 98.4945 145.028 98.9847 145.003C99.3881 145.003 99.699 144.972 99.699 144.972C99.699 144.972 99.4509 137.4 99.2626 136.603C99.173 136.222 98.7307 136.303 98.2943 136.494C97.9672 136.647 97.6514 136.829 97.3499 137.039C97.3499 137.039 95.8497 138.732 96.3129 140.67Z" fill="black"/>
<path opacity="0.1" d="M78.1362 125.319C78.1362 125.319 80.7542 126.287 82.9717 129.727L78.1362 125.319Z" fill="black"/>
<g opacity="0.1">
<path d="M99.403 87.9805C99.403 88.0043 99.403 88.0248 99.3881 88.0486C99.3629 88.1374 99.3319 88.2239 99.2954 88.3075C99.3242 88.1956 99.3602 88.0863 99.403 87.9805Z" fill="black"/>
<path d="M84.5976 86.4715C84.642 86.2536 84.7102 86.0431 84.8008 85.8447C84.8008 85.8958 84.7709 85.9503 84.759 86.0048C84.6594 86.6944 84.7013 87.4009 84.8815 88.0689C84.9211 88.4286 85.0779 88.758 85.3208 88.992C85.7273 89.2883 86.3579 89.0295 86.6896 89.428C86.8988 89.6834 86.9108 90.1365 87.1857 90.2932C87.2881 90.3442 87.4017 90.3584 87.5115 90.334C88.2377 90.2182 88.6561 89.2849 89.3554 89.0261C89.7622 88.9067 90.1926 88.95 90.5747 89.1487C90.7314 89.2033 90.872 89.3058 90.9812 89.445C91.2143 89.7856 91.0499 90.2932 91.1575 90.7087C91.3069 91.2877 91.9136 91.516 92.4366 91.5909C92.9596 91.6658 93.5514 91.7101 93.901 92.1631C94.0169 92.331 94.1 92.525 94.1448 92.7323C94.1896 92.9397 94.1952 93.1555 94.161 93.3655C94.1297 93.5121 94.1297 93.6651 94.161 93.8117C94.3045 94.2783 95.0128 94.2068 95.1981 93.8389C95.3355 93.5699 95.2937 93.3485 95.6135 93.2735C95.8418 93.2546 96.0708 93.3002 96.2799 93.4064C96.8469 93.6276 97.4442 93.7303 98.0432 93.7095C98.5371 93.7181 99.021 93.5502 99.4269 93.2292C99.6043 93.0704 99.7492 92.8693 99.8513 92.64C99.759 93.0571 99.549 93.4281 99.2536 93.6959C98.8477 94.0168 98.3638 94.1848 97.8698 94.1762C97.2709 94.1969 96.6735 94.0942 96.1066 93.873C95.8974 93.7668 95.6685 93.7212 95.4401 93.7402C95.1204 93.8151 95.1622 94.0365 95.0277 94.3056C94.8394 94.6735 94.1311 94.745 93.9877 94.2783C93.9578 94.1315 93.9578 93.9789 93.9877 93.8321C94.0218 93.6222 94.0163 93.4063 93.9715 93.199C93.9266 92.9917 93.8435 92.7976 93.7277 92.6298C93.378 92.1767 92.7893 92.1359 92.2633 92.0575C91.7373 91.9792 91.1336 91.7544 90.9842 91.1753C90.8766 90.7598 91.041 90.2523 90.8078 89.9117C90.6995 89.7729 90.56 89.6705 90.4044 89.6153C90.0208 89.4182 89.59 89.375 89.1821 89.4927C88.4857 89.7516 88.0643 90.6849 87.3381 90.8007C87.2284 90.8251 87.1148 90.8108 87.0124 90.7598C86.7374 90.6031 86.7135 90.1501 86.5163 89.8946C86.1845 89.4961 85.5569 89.755 85.1505 89.4586C84.9058 89.2259 84.7477 88.896 84.7082 88.5356C84.5304 87.8668 84.4926 87.1599 84.5976 86.4715Z" fill="black"/>
</g>
<path opacity="0.1" d="M99.8275 111.377C99.3254 112.147 98.7546 112.859 98.3123 113.67C97.8319 114.469 97.5984 115.427 97.6488 116.394C98.1061 115.86 98.3183 115.117 98.6052 114.446C99.0953 113.308 99.8245 112.345 100.443 111.302C100.56 111.101 101.313 109.94 100.933 109.892C100.616 109.841 99.9978 111.115 99.8275 111.377Z" fill="black"/>
<path d="M102.517 184.259C102.879 185.58 103.243 186.905 103.695 188.189C104.508 190.422 105.531 192.547 106.746 194.528C107.529 195.832 108.371 197.09 109.268 198.295C110.392 199.804 111.659 201.323 112.042 203.251C112.272 204.365 112.194 205.527 112.29 206.657C112.385 207.788 112.711 209.001 113.521 209.682C114.098 210.169 114.836 210.316 115.544 210.442C116.052 210.534 116.686 210.564 116.949 210.064C117.041 209.859 117.089 209.633 117.089 209.403L117.212 207.737C117.236 207.376 117.349 206.916 117.666 206.899C117.983 206.882 118.141 207.362 118.41 207.58C118.769 207.867 119.307 207.58 119.504 207.148C119.668 206.68 119.679 206.16 119.534 205.683C119.317 204.735 118.925 203.85 118.386 203.087C117.847 202.324 117.171 201.7 116.405 201.255C115.873 201.011 115.362 200.708 114.881 200.353C114.392 199.868 113.986 199.283 113.685 198.629C110.912 193.425 108.124 188.193 106.166 182.528C105.781 181.516 105.52 180.448 105.392 179.354C105.297 178.24 105.449 177.119 105.512 176.002C105.628 173.995 105.464 171.98 105.028 170.031C104.932 169.52 104.764 169.029 104.529 168.58C103.722 167.187 101.839 166.979 100.643 167.94C100.203 168.326 99.8383 168.812 99.5717 169.367C99.3052 169.922 99.143 170.535 99.0953 171.165C99.0086 172.296 99.5794 173.468 99.8693 174.52C100.748 177.77 101.631 181.016 102.517 184.259Z" fill="#A1616A"/>
<path opacity="0.05" d="M102.517 184.259C102.879 185.58 103.243 186.905 103.695 188.189C104.508 190.422 105.531 192.547 106.746 194.528C107.529 195.832 108.371 197.09 109.268 198.295C110.392 199.804 111.659 201.323 112.042 203.251C112.272 204.365 112.194 205.527 112.29 206.657C112.385 207.788 112.711 209.001 113.521 209.682C114.098 210.169 114.836 210.316 115.544 210.442C116.052 210.534 116.686 210.564 116.949 210.064C117.041 209.859 117.089 209.633 117.089 209.403L117.212 207.737C117.236 207.376 117.349 206.916 117.666 206.899C117.983 206.882 118.141 207.362 118.41 207.58C118.769 207.867 119.307 207.58 119.504 207.148C119.668 206.68 119.679 206.16 119.534 205.683C119.317 204.735 118.925 203.85 118.386 203.087C117.847 202.324 117.171 201.7 116.405 201.255C115.873 201.011 115.362 200.708 114.881 200.353C114.392 199.868 113.986 199.283 113.685 198.629C110.912 193.425 108.124 188.193 106.166 182.528C105.781 181.516 105.52 180.448 105.392 179.354C105.297 178.24 105.449 177.119 105.512 176.002C105.628 173.995 105.464 171.98 105.028 170.031C104.932 169.52 104.764 169.029 104.529 168.58C103.722 167.187 101.839 166.979 100.643 167.94C100.203 168.326 99.8383 168.812 99.5717 169.367C99.3052 169.922 99.143 170.535 99.0953 171.165C99.0086 172.296 99.5794 173.468 99.8693 174.52C100.748 177.77 101.631 181.016 102.517 184.259Z" fill="black"/>
<path d="M85.0938 239.908C85.6345 240.123 86.2094 240.202 86.7793 240.14C86.8212 239.609 87.4488 239.489 87.915 239.517C88.1405 239.508 88.364 239.567 88.5635 239.687C88.6801 239.772 88.7697 239.895 88.8833 239.983C89.0858 240.11 89.3128 240.177 89.5438 240.178L91.9705 240.409C93.0523 240.515 94.179 240.61 95.1922 240.171C95.394 240.098 95.5734 239.961 95.7092 239.776C95.9841 239.326 95.7092 238.682 95.3296 238.355C94.9501 238.028 94.46 237.882 94.0774 237.548C93.2347 236.816 93.1181 235.446 92.6728 234.35C92.3563 233.658 91.9658 233.014 91.5102 232.432C91.1802 231.932 90.7955 231.482 90.3656 231.093C89.3913 230.293 88.2736 230.31 87.129 230.194C86.3221 230.112 85.563 230.058 84.9832 230.875C84.2659 231.897 84.5529 233.941 84.5977 235.133C84.6537 236.737 84.8195 238.334 85.0938 239.908Z" fill="#514E7F"/>
<path opacity="0.05" d="M85.0938 239.908C85.6345 240.123 86.2094 240.202 86.7793 240.14C86.8212 239.609 87.4488 239.489 87.915 239.517C88.1405 239.508 88.364 239.567 88.5635 239.687C88.6801 239.772 88.7697 239.895 88.8833 239.983C89.0858 240.11 89.3128 240.177 89.5438 240.178L91.9705 240.409C93.0523 240.515 94.179 240.61 95.1922 240.171C95.394 240.098 95.5734 239.961 95.7092 239.776C95.9841 239.326 95.7092 238.682 95.3296 238.355C94.9501 238.028 94.46 237.882 94.0774 237.548C93.2347 236.816 93.1181 235.446 92.6728 234.35C92.3563 233.658 91.9658 233.014 91.5102 232.432C91.1802 231.932 90.7955 231.482 90.3656 231.093C89.3913 230.293 88.2736 230.31 87.129 230.194C86.3221 230.112 85.563 230.058 84.9832 230.875C84.2659 231.897 84.5529 233.941 84.5977 235.133C84.6537 236.737 84.8195 238.334 85.0938 239.908Z" fill="black"/>
<path d="M86.0741 186.108C85.3329 186.381 85.0101 187.433 85.1476 188.309C85.2851 189.184 85.7453 189.94 86.1249 190.717C87.2067 192.921 87.6729 195.441 88.5815 197.74C89.2599 199.443 90.1774 201.044 90.8468 202.768C91.5162 204.491 91.9317 206.436 91.5252 208.265C91.328 209.154 90.9454 209.968 90.6914 210.844C90.4399 211.792 90.2757 212.768 90.2013 213.756C89.8722 217.11 89.8132 220.492 90.025 223.859C90.0268 224.269 90.102 224.675 90.2461 225.051C90.3985 225.391 90.6615 225.732 90.545 226.073C90.4942 226.212 90.3836 226.314 90.3298 226.451C90.1744 226.832 90.4852 227.237 90.7691 227.51C90.7184 227.612 90.6502 227.702 90.5686 227.774C90.487 227.846 90.3936 227.899 90.2939 227.929C90.4976 228.077 90.654 228.295 90.7402 228.552C90.8263 228.809 90.8375 229.091 90.7721 229.356C90.5211 229.4 90.5061 229.84 90.6645 230.071C90.8229 230.303 91.0739 230.446 91.1875 230.708C91.2544 230.922 91.247 231.157 91.167 231.364C91.087 231.572 90.9404 231.737 90.7571 231.826C90.3838 231.989 89.9765 232.025 89.5856 231.928C88.9229 231.823 88.2684 231.659 87.6281 231.437C87.2934 231.362 86.9936 231.152 86.7839 230.846C86.5742 230.539 86.4686 230.156 86.4865 229.768C86.3385 228.382 86.2935 226.984 86.352 225.589C86.4566 218.831 86.352 212.066 86.095 205.312C85.9904 202.587 85.2731 199.947 84.3496 197.44C83.8392 196.159 83.2716 194.909 82.6492 193.694C81.3163 190.914 80.1388 187.835 80.4436 184.684C80.4765 184.344 80.584 183.939 80.8799 183.884C80.9956 183.87 81.1124 183.892 81.2176 183.949C81.8316 184.275 82.4256 184.649 82.9958 185.066C83.9328 185.692 84.9891 186.05 86.0741 186.108Z" fill="#464353"/>
<path opacity="0.05" d="M86.0741 186.108C85.3329 186.381 85.0101 187.433 85.1476 188.309C85.2851 189.184 85.7453 189.94 86.1249 190.717C87.2067 192.921 87.6729 195.441 88.5815 197.74C89.2599 199.443 90.1774 201.044 90.8468 202.768C91.5162 204.491 91.9317 206.436 91.5252 208.265C91.328 209.154 90.9454 209.968 90.6914 210.844C90.4399 211.792 90.2757 212.768 90.2013 213.756C89.8722 217.11 89.8132 220.492 90.025 223.859C90.0268 224.269 90.102 224.675 90.2461 225.051C90.3985 225.391 90.6615 225.732 90.545 226.073C90.4942 226.212 90.3836 226.314 90.3298 226.451C90.1744 226.832 90.4852 227.237 90.7691 227.51C90.7184 227.612 90.6502 227.702 90.5686 227.774C90.487 227.846 90.3936 227.899 90.2939 227.929C90.4976 228.077 90.654 228.295 90.7402 228.552C90.8263 228.809 90.8375 229.091 90.7721 229.356C90.5211 229.4 90.5061 229.84 90.6645 230.071C90.8229 230.303 91.0739 230.446 91.1875 230.708C91.2544 230.922 91.247 231.157 91.167 231.364C91.087 231.572 90.9404 231.737 90.7571 231.826C90.3838 231.989 89.9765 232.025 89.5856 231.928C88.9229 231.823 88.2684 231.659 87.6281 231.437C87.2934 231.362 86.9936 231.152 86.7839 230.846C86.5742 230.539 86.4686 230.156 86.4865 229.768C86.3385 228.382 86.2935 226.984 86.352 225.589C86.4566 218.831 86.352 212.066 86.095 205.312C85.9904 202.587 85.2731 199.947 84.3496 197.44C83.8392 196.159 83.2716 194.909 82.6492 193.694C81.3163 190.914 80.1388 187.835 80.4436 184.684C80.4765 184.344 80.584 183.939 80.8799 183.884C80.9956 183.87 81.1124 183.892 81.2176 183.949C81.8316 184.275 82.4256 184.649 82.9958 185.066C83.9328 185.692 84.9891 186.05 86.0741 186.108Z" fill="black"/>
<path d="M76.0534 177.893C75.6669 177.61 75.2212 177.45 74.7623 177.43C74.2304 177.46 73.7761 177.859 73.3607 178.24C72.8685 178.671 72.4013 179.137 71.962 179.637C71.0525 180.742 70.4187 182.104 70.1266 183.582C69.8344 185.06 69.8944 186.6 70.3004 188.043C70.7397 189.545 71.5436 190.87 72.3386 192.168L73.9524 194.811C76.415 198.841 78.8776 202.87 81.4567 206.804C81.4573 206.901 81.4848 206.995 81.5353 207.073C81.5858 207.151 81.6566 207.208 81.7376 207.237C81.8303 207.264 81.9468 207.261 82.0036 207.349C82.0299 207.404 82.0413 207.467 82.0365 207.53C82.0307 207.821 81.9823 208.109 81.893 208.381C81.8512 208.471 81.8405 208.576 81.8632 208.674C81.9468 208.896 82.2995 208.77 82.4131 208.977C82.4878 209.114 82.3951 209.291 82.2965 209.407C82.1979 209.522 82.0754 209.652 82.0933 209.812C82.1112 209.972 82.3563 210.153 82.3473 210.35C82.3473 210.466 82.2577 210.554 82.1949 210.646C82.1071 210.793 82.067 210.97 82.0818 211.147C82.0965 211.323 82.1651 211.489 82.2756 211.614C82.4459 213.535 81.5284 215.361 81.3461 217.275C81.0473 220.299 82.2577 223.253 82.4041 226.287C82.3953 226.629 82.4525 226.968 82.5715 227.282C82.8195 227.807 83.468 228.123 83.4352 228.719C83.3882 228.964 83.3274 229.206 83.2529 229.442C83.202 229.782 83.3455 230.123 83.3515 230.463C83.3574 230.804 83.0915 231.223 82.8105 231.087C83.0217 231.891 83.21 232.701 83.3754 233.519L89.0238 234.05C89.0847 233.471 89.0676 232.886 88.973 232.313C88.8564 231.69 88.6114 231.111 88.4829 230.494C88.3993 230.191 88.3758 229.87 88.414 229.555C88.4523 229.24 88.5513 228.938 88.704 228.672C88.5568 228.674 88.4137 228.616 88.2999 228.51C88.1862 228.403 88.1091 228.254 88.0824 228.089C88.0351 227.757 88.0402 227.418 88.0973 227.088C88.2468 225.409 87.6281 223.753 87.646 222.067C87.664 220.739 88.0734 219.462 88.2796 218.157C88.7219 215.364 88.2617 212.336 89.3525 209.785C90.013 208.248 90.9275 206.545 90.1863 205.057C89.8217 204.321 89.1762 203.817 88.7548 203.122C88.4113 202.466 88.1536 201.755 87.9897 201.014C87.1201 197.948 85.7124 195.101 84.4782 192.185C84.1356 191.454 83.8813 190.674 83.7221 189.866C83.6349 189.156 83.6029 188.439 83.6264 187.723C83.6264 186.438 83.5576 185.153 83.4202 183.878C83.3923 183.319 83.2523 182.774 83.0108 182.287C82.7669 181.918 82.4624 181.607 82.1142 181.371C80.2613 179.923 78.0557 179.095 76.0534 177.893Z" fill="#464353"/>
<path d="M82.8222 242.269C83.3645 242.48 83.9401 242.558 84.5108 242.497C84.5526 241.966 85.1772 241.846 85.6434 241.874C85.8689 241.865 86.0924 241.924 86.2919 242.044C86.4085 242.129 86.4982 242.255 86.6147 242.34C86.8167 242.468 87.0441 242.535 87.2752 242.534L89.6989 242.766C90.7838 242.872 91.9075 242.97 92.9236 242.528C93.1251 242.456 93.3038 242.318 93.4376 242.132C93.7126 241.683 93.4376 241.042 93.0581 240.715C92.6785 240.389 92.1884 240.239 91.8089 239.905C90.9631 239.173 90.8495 237.807 90.4012 236.71C90.0876 236.016 89.698 235.371 89.2417 234.789C88.9105 234.29 88.5248 233.841 88.094 233.454C87.1228 232.65 86.0021 232.667 84.8604 232.551C84.0505 232.469 83.2914 232.418 82.7146 233.232C81.9974 234.254 82.2843 236.298 82.3261 237.493C82.3823 239.097 82.5481 240.694 82.8222 242.269Z" fill="#514E7F"/>
<path d="M107.858 166.745C110.948 166.745 113.452 163.89 113.452 160.368C113.452 156.847 110.948 153.992 107.858 153.992C104.768 153.992 102.263 156.847 102.263 160.368C102.263 163.89 104.768 166.745 107.858 166.745Z" fill="#A1616A"/>
<path d="M102.58 162.262C101.779 163.049 100.628 163.106 99.576 163.229C97.3265 163.492 95.1369 164.215 93.1117 165.361C92.8314 165.499 92.5776 165.698 92.3646 165.947C92.1828 166.217 92.0534 166.529 91.985 166.86C91.7926 167.577 91.7206 168.33 91.7729 169.077C91.8462 169.803 92.0292 170.508 92.3138 171.162C93.0902 172.994 94.2884 174.551 95.7805 175.668C96.0435 175.891 96.3418 176.055 96.6592 176.149C97.3944 176.322 98.1056 175.839 98.8319 175.621C99.4924 175.424 100.189 175.449 100.837 175.692C101.435 175.924 102.089 176.346 102.681 176.063C103.06 175.822 103.354 175.44 103.515 174.98C104.087 173.749 104.596 172.482 105.042 171.186C105.202 170.68 105.387 170.184 105.595 169.701C106.244 168.294 107.364 167.207 107.923 165.746C107.98 165.635 108.014 165.51 108.023 165.382C108.033 165.253 108.017 165.124 107.977 165.004C107.873 164.841 107.73 164.716 107.564 164.646C106.738 164.107 105.985 163.433 105.329 162.647C104.961 162.245 104.286 161.158 103.757 161.063C103.162 160.947 102.983 161.867 102.58 162.262Z" fill="#A1616A"/>
<path d="M102.711 175.219C102.063 175.56 101.298 175.413 100.595 175.246C98.7842 174.814 96.9522 174.378 95.2756 173.485C94.7518 173.257 94.2979 172.859 93.9696 172.341C93.7657 171.898 93.6417 171.412 93.605 170.914L93.3061 168.529C93.1985 167.702 93.3838 166.935 93.4018 166.097C93.4132 166.005 93.4082 165.91 93.3872 165.819C93.3661 165.729 93.3294 165.644 93.2792 165.569C93.1769 165.472 93.0448 165.424 92.9117 165.437C92.0719 165.454 91.5638 166.458 90.9751 167.14C90.6348 167.533 90.2281 167.843 89.7796 168.053C89.2417 168.305 88.5842 168.482 88.3601 169.095C88.2704 169.35 88.2824 169.64 88.1867 169.895C87.8102 170.917 86.2053 170.577 85.7959 171.598C85.6793 171.884 85.6883 172.242 85.497 172.467C85.3057 172.692 84.9471 172.688 84.6512 172.743C83.4827 172.961 82.9179 174.497 81.9197 175.222C81.0799 175.836 79.998 175.822 79.0925 176.299C78.5904 176.565 78.1451 176.98 77.6131 177.154C77.0812 177.327 76.4805 177.236 75.9097 177.253C75.8488 177.246 75.7874 177.254 75.7293 177.276C75.6712 177.297 75.6176 177.332 75.5719 177.379C75.5365 177.44 75.5131 177.51 75.5033 177.583C75.4935 177.656 75.4975 177.73 75.5152 177.801C75.792 179.815 76.5242 181.712 77.6399 183.306C78.7556 184.899 80.2162 186.134 81.8778 186.889C82.0707 186.958 82.2539 187.059 82.4218 187.188C82.9298 187.621 83.0195 188.551 83.5963 188.857C83.8044 188.941 84.0288 188.957 84.2446 188.904C84.4603 188.851 84.659 188.731 84.8186 188.558C85.1368 188.208 85.4362 187.838 85.7152 187.447C86.2418 186.82 86.9331 186.405 87.6846 186.265C88.378 186.139 89.152 186.231 89.7139 185.744C89.9437 185.504 90.1574 185.244 90.3534 184.967C90.7697 184.525 91.2638 184.188 91.8029 183.98C93.276 183.316 94.8329 182.927 96.4143 182.825C97.8876 182.733 99.4028 182.886 100.795 182.341C101.157 182.214 101.49 181.999 101.773 181.711C102.072 181.342 102.295 180.901 102.424 180.42C102.927 178.747 103.026 176.951 102.711 175.219Z" fill="#1BA64E"/>
<path d="M95.4997 165.821C95.9121 165.777 96.3275 165.821 96.7429 165.821C97.23 165.821 97.7112 165.685 98.1984 165.682C98.9698 165.696 99.717 165.991 100.331 166.523C100.945 167.056 101.394 167.798 101.611 168.642C101.652 168.776 101.66 168.921 101.632 169.061C101.616 169.129 101.579 169.189 101.527 169.229C101.476 169.269 101.413 169.287 101.351 169.279C101.19 168.775 100.978 168.294 100.721 167.845C100.257 167.124 99.5973 166.599 98.8439 166.353C98.0927 166.11 97.3013 166.077 96.5367 166.257C96.2169 166.325 95.9061 166.421 95.5953 166.52L94.101 166.99C93.8261 167.075 93.5481 167.16 93.2821 167.272C93.0759 167.361 92.7233 167.684 92.5201 167.698C92.2451 167.698 92.4663 167.426 92.5888 167.242C92.8328 166.862 93.1744 166.579 93.5661 166.431C94.1871 166.141 94.8362 165.936 95.4997 165.821Z" fill="#1BA64E"/>
<path d="M99.2712 184.974C99.6329 186.296 99.9945 187.621 100.449 188.905C101.261 191.138 102.284 193.263 103.5 195.243C104.284 196.548 105.125 197.805 106.022 199.011C107.143 200.52 108.395 202.039 108.796 203.963C109.026 205.08 108.948 206.242 109.044 207.369C109.14 208.497 109.465 209.713 110.272 210.394C110.852 210.878 111.59 211.024 112.298 211.154C112.804 211.246 113.437 211.276 113.703 210.775C113.793 210.57 113.841 210.344 113.844 210.115L113.963 208.449C113.99 208.088 114.104 207.628 114.417 207.611C114.731 207.594 114.895 208.074 115.164 208.292C115.523 208.579 116.061 208.292 116.258 207.86C116.421 207.391 116.431 206.872 116.288 206.395C116.07 205.448 115.678 204.563 115.139 203.8C114.599 203.037 113.925 202.413 113.159 201.967C112.626 201.722 112.115 201.42 111.632 201.065C111.142 200.579 110.736 199.994 110.437 199.338C107.66 194.136 104.872 188.905 102.917 183.237C102.532 182.225 102.27 181.158 102.14 180.066C102.048 178.952 102.197 177.831 102.263 176.714C102.379 174.707 102.215 172.692 101.779 170.743C101.683 170.231 101.514 169.74 101.277 169.292C100.473 167.896 98.5869 167.691 97.3914 168.652C96.9508 169.037 96.5854 169.523 96.3184 170.079C96.0514 170.634 95.8886 171.246 95.8404 171.877C95.7537 173.008 96.3275 174.18 96.6144 175.232C97.497 178.484 98.3826 181.731 99.2712 184.974Z" fill="#A1616A"/>
<path d="M115.995 155.858C116.04 155.327 115.622 154.836 115.147 154.496C114.646 154.203 114.166 153.868 113.709 153.494C113.285 153.075 113.052 152.53 112.627 152.111C112.145 151.693 111.597 151.382 111.013 151.195C109.772 150.699 108.468 150.433 107.152 150.408C105.822 150.408 104.463 150.749 103.461 151.522C103.214 151.699 103.001 151.931 102.834 152.203C102.676 152.53 102.574 152.889 102.535 153.259C102.296 154.402 101.973 155.52 101.57 156.601C101.154 157.803 100.712 159.05 99.7346 159.979C98.6886 160.971 97.0897 161.543 96.3993 162.742C96.323 162.848 96.2695 162.974 96.243 163.108C96.2166 163.242 96.2179 163.382 96.2469 163.515C96.3456 163.818 96.6623 164.026 96.9552 164.217C98.6527 165.327 100.117 166.768 100.87 168.488C101.623 170.208 101.602 172.235 100.53 173.819C100.135 174.404 99.5911 175.099 99.9767 175.689C100.574 176.584 102.574 176.07 103.04 177.017C103.186 177.32 103.1 177.664 103.1 177.995C103.1 178.989 103.94 179.871 104.959 180.331C105.978 180.791 107.158 180.9 108.306 180.958C108.61 180.177 108.64 179.293 108.389 178.488C108.313 178.315 108.283 178.119 108.303 177.926C108.388 177.712 108.521 177.527 108.688 177.388C109.914 176.067 109.654 174.125 108.918 172.555C108.183 170.985 107.036 169.551 106.608 167.899C106.396 167.078 106.396 166.155 106.967 165.474C107.295 165.146 107.648 164.853 108.022 164.598C108.69 164.081 109.205 163.345 109.498 162.486C109.842 161.4 109.797 160.102 110.795 159.37C111.755 158.689 113.102 158.886 114.163 158.419C114.979 158.052 115.93 156.638 115.995 155.858Z" fill="#464353"/>
<path d="M173.944 209.23C169.386 207.08 168.047 205.527 168.047 202.417C168.047 200.033 168.968 197.281 173.002 197.281C175.233 197.244 177.423 197.954 179.302 199.325L180.614 195.37C179.093 194.348 176.947 193.398 173.803 193.279V187.488H171.152V193.517C166.332 194.413 163.54 198.173 163.54 203.129C163.54 208.324 166.23 211.072 171.586 213.46C175.465 215.262 177.494 217.292 177.494 220.576C177.494 223.982 174.981 226.427 171.26 226.427C168.328 226.427 165.005 225.293 163.119 223.859L161.861 227.858C163.696 229.353 166.84 230.426 169.876 230.487V236.516H174.386V230.307C179.765 229.285 182.661 224.857 182.661 220.157C182.661 214.843 179.341 211.737 173.944 209.23Z" fill="url(#paint1_linear_99_4161)"/>
<path d="M169.888 235.154V229.125C166.852 229.063 163.708 227.99 161.873 226.495L163.131 222.496C165.017 223.93 168.34 225.065 171.272 225.065C174.993 225.065 177.494 222.619 177.494 219.213C177.494 215.929 175.453 213.899 171.574 212.108C166.23 209.723 163.529 206.971 163.529 201.777C163.529 196.821 166.32 193.06 171.141 192.165V186.136H173.791V191.926C176.935 192.045 179.081 192.999 180.602 194.018L179.29 197.955C177.412 196.585 175.221 195.874 172.991 195.911C168.956 195.911 168.035 198.66 168.035 201.048C168.035 204.151 169.374 205.704 173.932 207.86C179.329 210.367 182.65 213.473 182.65 218.787C182.65 223.505 179.769 227.922 174.374 228.937V235.154H169.888Z" fill="#1BA64E"/>
</g>
<defs>
<linearGradient id="paint0_linear_99_4161" x1="91.3937" y1="144.782" x2="91.3937" y2="79.7585" gradientUnits="userSpaceOnUse">
<stop stop-color="#808080" stop-opacity="0.25"/>
<stop offset="0.54" stop-color="#808080" stop-opacity="0.12"/>
<stop offset="1" stop-color="#808080" stop-opacity="0.1"/>
</linearGradient>
<linearGradient id="paint1_linear_99_4161" x1="161.873" y1="212.006" x2="182.661" y2="212.006" gradientUnits="userSpaceOnUse">
<stop stop-color="#808080" stop-opacity="0.25"/>
<stop offset="0.54" stop-color="#808080" stop-opacity="0.12"/>
<stop offset="1" stop-color="#808080" stop-opacity="0.1"/>
</linearGradient>
<clipPath id="clip0_99_4161">
<rect width="352" height="247" fill="white"/>
</clipPath>
</defs>
</svg>
