<svg width="268" height="240" viewBox="0 0 268 240" fill="none" xmlns="http://www.w3.org/2000/svg">
<g clip-path="url(#clip0_99_4379)">
<path d="M1.50173 53.8536C0.976942 54.0013 0.532127 54.3514 0.264865 54.827C-0.00239669 55.3025 -0.0702862 55.8648 0.0760922 56.3905L34.4509 179.27C34.5985 179.796 34.9482 180.241 35.4234 180.508C35.8985 180.776 36.4602 180.844 36.9854 180.697L163.708 145.18C164.233 145.032 164.678 144.682 164.945 144.207C165.212 143.731 165.28 143.169 165.134 142.643L130.759 19.7634C130.611 19.2381 130.262 18.7929 129.787 18.5254C129.311 18.2579 128.75 18.1899 128.225 18.3364L1.50173 53.8536Z" fill="#E6E6E6"/>
<path d="M38.5779 174.895L159.337 141.049L126.632 24.1387L5.87305 57.9843L38.5779 174.895Z" fill="white"/>
<path d="M21.839 73.595C21.0334 73.8208 20.7012 75.1604 21.0986 76.5811C21.496 78.0017 22.4749 78.9738 23.2806 78.748L78.3569 63.3116C79.1626 63.0857 79.4948 61.7461 79.0974 60.3255C78.7 58.9049 77.7211 57.9328 76.9154 58.1586L21.839 73.595Z" fill="#E6E6E6"/>
<path d="M26.2746 89.4505C25.4689 89.6763 25.1367 91.0159 25.5342 92.4365C25.9316 93.8572 26.9104 94.8293 27.7161 94.6035L82.7925 79.167C83.5981 78.9412 83.9303 77.6016 83.5329 76.181C83.1355 74.7604 82.1566 73.7882 81.351 74.014L26.2746 89.4505Z" fill="#E6E6E6"/>
<path d="M30.6589 105.123C29.8532 105.349 29.521 106.689 29.9184 108.109C30.3158 109.53 31.2947 110.502 32.1004 110.276L87.1768 94.8399C87.9824 94.6141 88.3146 93.2745 87.9172 91.8538C87.5198 90.4332 86.5409 89.4611 85.7352 89.6869L30.6589 105.123Z" fill="#E6E6E6"/>
<path d="M35.0939 120.979C34.2883 121.205 33.9561 122.544 34.3535 123.965C34.7509 125.385 35.7298 126.358 36.5355 126.132L91.6118 110.695C92.4175 110.47 92.7497 109.13 92.3523 107.709C91.9548 106.289 90.976 105.317 90.1703 105.542L35.0939 120.979Z" fill="#E6E6E6"/>
<path d="M104.866 50.5083C104.528 50.6027 104.211 50.763 103.935 50.9799C103.658 51.1969 103.427 51.4662 103.255 51.7726C103.082 52.079 102.972 52.4163 102.93 52.7654C102.888 53.1145 102.915 53.4685 103.01 53.8071C103.104 54.1457 103.265 54.4623 103.482 54.7388C103.699 55.0152 103.968 55.2462 104.275 55.4184C104.581 55.5906 104.918 55.7007 105.267 55.7424C105.616 55.7841 105.969 55.7565 106.307 55.6613L116.604 52.7756C117.286 52.5842 117.865 52.1293 118.213 51.5108C118.56 50.8923 118.648 50.1609 118.457 49.4776C118.266 48.7943 117.811 48.2149 117.193 47.867C116.575 47.5192 115.845 47.4312 115.162 47.6225L104.866 50.5083Z" fill="#E6E6E6"/>
<path d="M109.216 66.0562C108.877 66.1506 108.561 66.3109 108.284 66.5278C108.008 66.7447 107.777 67.0141 107.604 67.3204C107.432 67.6268 107.322 67.9642 107.279 68.3133C107.237 68.6624 107.265 69.0163 107.359 69.3549C107.454 69.6935 107.614 70.0101 107.831 70.2866C108.049 70.5631 108.318 70.794 108.624 70.9663C108.93 71.1385 109.268 71.2486 109.616 71.2902C109.965 71.3319 110.319 71.3044 110.657 71.2092L120.953 68.3234C121.636 68.1321 122.215 67.6771 122.562 67.0586C122.91 66.4401 122.998 65.7088 122.807 65.0254C122.615 64.3421 122.161 63.7628 121.543 63.4149C120.925 63.067 120.194 62.9791 119.512 63.1704L109.216 66.0562Z" fill="#E6E6E6"/>
<path d="M113.565 81.604C113.227 81.6988 112.911 81.8592 112.635 82.0762C112.359 82.2932 112.128 82.5626 111.956 82.8688C111.784 83.175 111.674 83.5122 111.632 83.8611C111.59 84.2099 111.617 84.5636 111.712 84.902C111.806 85.2403 111.967 85.5567 112.184 85.833C112.4 86.1094 112.669 86.3403 112.975 86.5125C113.281 86.6848 113.618 86.795 113.967 86.837C114.315 86.8789 114.669 86.8518 115.007 86.757L125.303 83.8713C125.986 83.6799 126.564 83.225 126.912 82.6065C127.259 81.988 127.347 81.2566 127.156 80.5733C126.965 79.89 126.51 79.3106 125.893 78.9628C125.275 78.6149 124.544 78.5269 123.861 78.7182L113.565 81.604Z" fill="#E6E6E6"/>
<path d="M117.914 97.152C117.232 97.344 116.654 97.7991 116.307 98.4173C115.96 99.0355 115.873 99.7663 116.064 100.449C116.255 101.132 116.709 101.711 117.326 102.059C117.943 102.407 118.673 102.495 119.356 102.305L129.652 99.4193C130.334 99.2273 130.912 98.7722 131.259 98.154C131.606 97.5358 131.693 96.805 131.502 96.1221C131.311 95.4393 130.857 94.8603 130.24 94.5123C129.623 94.1644 128.893 94.0758 128.21 94.2662L117.914 97.152Z" fill="#E6E6E6"/>
<path d="M122.07 124.102C121.639 124.223 121.236 124.427 120.883 124.703C120.531 124.98 120.237 125.323 120.017 125.713C119.797 126.104 119.657 126.533 119.603 126.978C119.55 127.423 119.584 127.874 119.705 128.306C119.825 128.737 120.03 129.14 120.306 129.493C120.583 129.845 120.926 130.139 121.317 130.359C121.707 130.578 122.136 130.718 122.581 130.772C123.025 130.825 123.476 130.79 123.907 130.668L137.026 126.991C137.896 126.747 138.634 126.168 139.077 125.38C139.52 124.591 139.632 123.66 139.388 122.789C139.144 121.918 138.565 121.18 137.778 120.737C136.991 120.293 136.059 120.181 135.19 120.425L122.07 124.102Z" fill="#1BA64E"/>
<path d="M135.572 110.842L38.4888 138.052L38.7304 138.916L135.814 111.706L135.572 110.842Z" fill="#E6E6E6"/>
<path d="M233.091 226.975L225.305 228.859L214.339 199.695L225.831 196.914L233.091 226.975Z" fill="#A0616A"/>
<path d="M211.871 240L211.818 239.782C211.201 237.214 211.627 234.507 213.002 232.253C214.377 229.999 216.589 228.383 219.152 227.76L234.386 224.073L236.777 233.973L211.871 240Z" fill="#2F2E41"/>
<path d="M198.622 232.284L190.612 232.283L186.801 201.356L198.623 201.357L198.622 232.284Z" fill="#A0616A"/>
<path d="M200.562 239.954L174.938 239.953V239.729C174.939 237.087 175.987 234.554 177.853 232.686C179.719 230.818 182.25 229.769 184.889 229.769H184.89L200.563 229.769L200.562 239.954Z" fill="#2F2E41"/>
<path d="M186.794 220.211L179.017 127.428L211.214 121.488L211.341 121.465L220.765 127.529L217.485 161.675L232.587 214.911L219.547 218.346L204.42 168.972L200.959 153.958L199.185 173.468L200.502 221.582L186.794 220.211Z" fill="#2F2E41"/>
<path d="M178.019 129.533L177.934 129.425L189.06 45.574L189.075 45.4642L189.153 45.3856C189.317 45.2214 193.215 41.3657 197.225 41.3657C197.804 41.3657 198.355 41.351 198.884 41.3376C201.952 41.2578 204.376 41.1939 207.257 44.0776C210.191 47.0149 219.767 57.741 219.767 72.4315C219.767 86.6506 221.06 130.839 221.073 131.283L221.092 131.907L220.569 131.567C220.44 131.484 207.561 123.276 196.76 130.906C193.384 133.291 190.352 134.127 187.759 134.127C181.724 134.127 178.071 129.599 178.019 129.533Z" fill="#1BA64E"/>
<path d="M203.219 34.4466C210.996 30.1913 213.855 20.4312 209.603 12.6469C205.352 4.86252 195.601 2.00165 187.824 6.25697C180.047 10.5123 177.189 20.2724 181.44 28.0567C185.692 35.8411 195.442 38.702 203.219 34.4466Z" fill="#A0616A"/>
<path d="M170.955 147.553C171.714 146.964 172.335 146.215 172.774 145.36C173.213 144.505 173.46 143.564 173.496 142.603C173.532 141.642 173.358 140.685 172.984 139.799C172.611 138.913 172.049 138.12 171.336 137.475L180.45 115.958L168.517 118.156L161.692 138.253C160.689 139.523 160.186 141.117 160.279 142.733C160.372 144.349 161.055 145.875 162.196 147.021C163.338 148.167 164.86 148.855 166.475 148.953C168.089 149.051 169.683 148.552 170.955 147.553Z" fill="#A0616A"/>
<path d="M162.15 130.815L165.085 124.614C164.903 124.504 164.754 124.349 164.651 124.164C161.909 119.408 178.471 79.9093 179.575 77.2894C179.407 75.8645 177.668 60.7646 178.939 55.6749C180.436 49.6834 183.508 46.891 189.214 46.3379C195.505 45.7465 197.203 54.2985 197.219 54.3854L197.225 76.371L190.004 101.679L173.536 135.305L162.15 130.815Z" fill="#1BA64E"/>
<path d="M197.574 26.4038C195.65 26.6543 194.199 24.6841 193.526 22.8629C192.853 21.0417 192.34 18.9214 190.667 17.9377C188.382 16.5936 185.459 18.2101 182.846 17.7667C179.895 17.2659 177.976 14.1354 177.825 11.1432C177.675 8.151 178.865 5.27316 180.032 2.51438L180.439 5.94292C180.385 4.7809 180.629 3.62432 181.149 2.58381C181.669 1.5433 182.446 0.653666 183.408 0L182.882 5.03086C183.212 2.21244 186.245 0.0285566 189.019 0.612619L188.937 3.61018C192.345 3.2045 195.783 2.79825 199.202 3.10732C202.621 3.41638 206.063 4.49902 208.654 6.75252C212.53 10.1234 213.945 15.674 213.47 20.7912C212.995 25.9085 210.884 30.7157 208.685 35.3596C208.131 36.528 207.366 37.8464 206.083 37.9953C204.93 38.129 203.875 37.1643 203.516 36.0592C203.158 34.9542 203.333 33.7537 203.547 32.6119C203.872 30.8871 204.28 29.1241 203.976 27.3957C203.671 25.6673 202.428 23.9594 200.688 23.7475C198.947 23.5357 197.166 25.5272 198.003 27.0695L197.574 26.4038Z" fill="#2F2E41"/>
<path d="M267.829 239.99H152.342V239.046H268L267.829 239.99Z" fill="#3F3D56"/>
</g>
<defs>
<clipPath id="clip0_99_4379">
<rect width="268" height="240" fill="white"/>
</clipPath>
</defs>
</svg>
